<svg width="280" height="352" viewBox="0 0 280 352" fill="none" xmlns="http://www.w3.org/2000/svg">
<g clip-path="url(#clip0_134_265)">
<path d="M0.5 20C0.5 9.23045 9.23045 0.5 20 0.5H260C270.77 0.5 279.5 9.23045 279.5 20V332C279.5 342.77 270.77 351.5 260 351.5H20C9.23045 351.5 0.5 342.77 0.5 332V20Z" stroke="#111010"/>
<rect x="0.640625" y="295.281" width="278.929" height="1" fill="#111010"/>
<path d="M0.640625 296H279.359V331C279.359 342.046 270.405 351 259.359 351H20.6406C9.59492 351 0.640625 342.046 0.640625 331V296Z" fill="#CAB5EB"/>
<path d="M32.8112 329V316.88L30.5512 317.38V316.22L33.3712 315H34.5112V329H32.8112ZM42.9263 329.24C41.6863 329.24 40.613 328.94 39.7063 328.34C38.813 327.727 38.1263 326.88 37.6463 325.8C37.1663 324.707 36.9263 323.44 36.9263 322C36.9263 320.56 37.1663 319.3 37.6463 318.22C38.1263 317.127 38.813 316.28 39.7063 315.68C40.613 315.067 41.6863 314.76 42.9263 314.76C44.1663 314.76 45.233 315.067 46.1263 315.68C47.0197 316.28 47.7063 317.127 48.1863 318.22C48.6663 319.3 48.9063 320.56 48.9063 322C48.9063 323.44 48.6663 324.707 48.1863 325.8C47.7063 326.88 47.0197 327.727 46.1263 328.34C45.233 328.94 44.1663 329.24 42.9263 329.24ZM42.9263 327.76C43.7397 327.76 44.4663 327.533 45.1063 327.08C45.7597 326.613 46.2663 325.953 46.6263 325.1C46.9997 324.233 47.1863 323.2 47.1863 322C47.1863 320.8 46.9997 319.773 46.6263 318.92C46.2663 318.067 45.7597 317.413 45.1063 316.96C44.4663 316.493 43.7397 316.26 42.9263 316.26C42.0997 316.26 41.3663 316.493 40.7263 316.96C40.0863 317.413 39.5797 318.067 39.2063 318.92C38.833 319.773 38.6463 320.8 38.6463 322C38.6463 323.2 38.833 324.233 39.2063 325.1C39.5797 325.953 40.0863 326.613 40.7263 327.08C41.3663 327.533 42.0997 327.76 42.9263 327.76ZM59.9065 329V316.38H55.7265V315H65.7665V316.38H61.5865V329H59.9065ZM67.8179 329V315H69.4979V329H67.8179ZM72.4663 329V315H77.0663C78.1597 315 79.0597 315.18 79.7663 315.54C80.473 315.9 80.993 316.387 81.3263 317C81.673 317.613 81.8463 318.307 81.8463 319.08C81.8463 319.84 81.6797 320.527 81.3463 321.14C81.013 321.753 80.493 322.247 79.7863 322.62C79.0797 322.98 78.173 323.16 77.0663 323.16H74.1463V329H72.4663ZM74.1463 321.74H77.0263C78.1463 321.74 78.9397 321.507 79.4063 321.04C79.8863 320.56 80.1263 319.907 80.1263 319.08C80.1263 318.24 79.8863 317.587 79.4063 317.12C78.9397 316.64 78.1463 316.4 77.0263 316.4H74.1463V321.74ZM88.5084 329.24C87.4817 329.24 86.5884 329.053 85.8284 328.68C85.0684 328.307 84.4817 327.787 84.0684 327.12C83.655 326.453 83.4484 325.68 83.4484 324.8H85.2084C85.2084 325.347 85.335 325.853 85.5884 326.32C85.8417 326.773 86.2084 327.14 86.6884 327.42C87.1817 327.687 87.7884 327.82 88.5084 327.82C89.455 327.82 90.1884 327.593 90.7084 327.14C91.2284 326.687 91.4884 326.12 91.4884 325.44C91.4884 324.88 91.3684 324.433 91.1284 324.1C90.8884 323.753 90.5617 323.473 90.1484 323.26C89.7484 323.047 89.2817 322.86 88.7484 322.7C88.2284 322.54 87.6817 322.36 87.1084 322.16C86.0284 321.787 85.2284 321.327 84.7084 320.78C84.1884 320.22 83.9284 319.493 83.9284 318.6C83.915 317.853 84.0884 317.193 84.4484 316.62C84.8084 316.033 85.315 315.58 85.9684 315.26C86.635 314.927 87.4217 314.76 88.3284 314.76C89.2217 314.76 89.995 314.927 90.6484 315.26C91.315 315.593 91.8284 316.053 92.1884 316.64C92.5617 317.227 92.755 317.893 92.7684 318.64H91.0084C91.0084 318.253 90.9084 317.873 90.7084 317.5C90.5084 317.113 90.2017 316.8 89.7884 316.56C89.3884 316.32 88.8817 316.2 88.2684 316.2C87.5084 316.187 86.8817 316.38 86.3884 316.78C85.9084 317.18 85.6684 317.733 85.6684 318.44C85.6684 319.04 85.835 319.5 86.1684 319.82C86.515 320.14 86.995 320.407 87.6084 320.62C88.2217 320.82 88.9284 321.053 89.7284 321.32C90.395 321.56 90.995 321.84 91.5284 322.16C92.0617 322.48 92.475 322.893 92.7684 323.4C93.075 323.907 93.2284 324.553 93.2284 325.34C93.2284 326.007 93.055 326.64 92.7084 327.24C92.3617 327.827 91.835 328.307 91.1284 328.68C90.435 329.053 89.5617 329.24 88.5084 329.24ZM100.904 329V315H109.424V316.38H102.584V321.3H108.404V322.66H102.584V329H100.904ZM117.947 329.24C116.574 329.24 115.367 328.94 114.327 328.34C113.301 327.727 112.494 326.873 111.907 325.78C111.334 324.687 111.047 323.427 111.047 322C111.047 320.573 111.334 319.32 111.907 318.24C112.494 317.147 113.301 316.293 114.327 315.68C115.367 315.067 116.574 314.76 117.947 314.76C119.334 314.76 120.541 315.067 121.567 315.68C122.607 316.293 123.414 317.147 123.987 318.24C124.561 319.32 124.847 320.573 124.847 322C124.847 323.427 124.561 324.687 123.987 325.78C123.414 326.873 122.607 327.727 121.567 328.34C120.541 328.94 119.334 329.24 117.947 329.24ZM117.947 327.76C118.974 327.76 119.874 327.533 120.647 327.08C121.434 326.613 122.041 325.953 122.467 325.1C122.907 324.233 123.127 323.2 123.127 322C123.127 320.8 122.907 319.773 122.467 318.92C122.041 318.067 121.434 317.413 120.647 316.96C119.874 316.493 118.974 316.26 117.947 316.26C116.921 316.26 116.014 316.493 115.227 316.96C114.454 317.413 113.847 318.067 113.407 318.92C112.981 319.773 112.767 320.8 112.767 322C112.767 323.2 112.981 324.233 113.407 325.1C113.847 325.953 114.454 326.613 115.227 327.08C116.014 327.533 116.921 327.76 117.947 327.76ZM127.271 329V315H131.791C132.884 315 133.778 315.18 134.471 315.54C135.164 315.9 135.678 316.393 136.011 317.02C136.344 317.647 136.511 318.34 136.511 319.1C136.511 319.98 136.271 320.773 135.791 321.48C135.324 322.187 134.591 322.687 133.591 322.98L136.651 329H134.671L131.831 323.22H131.711H128.951V329H127.271ZM128.951 321.9H131.671C132.751 321.9 133.538 321.64 134.031 321.12C134.524 320.6 134.771 319.933 134.771 319.12C134.771 318.293 134.524 317.64 134.031 317.16C133.551 316.667 132.758 316.42 131.651 316.42H128.951V321.9ZM144.419 329V315H149.339C150.326 315 151.139 315.16 151.779 315.48C152.433 315.787 152.919 316.213 153.239 316.76C153.559 317.293 153.719 317.893 153.719 318.56C153.719 319.467 153.473 320.18 152.979 320.7C152.499 321.22 151.919 321.58 151.239 321.78C151.759 321.873 152.233 322.08 152.659 322.4C153.086 322.72 153.419 323.12 153.659 323.6C153.913 324.08 154.039 324.607 154.039 325.18C154.039 325.887 153.866 326.533 153.519 327.12C153.173 327.693 152.659 328.153 151.979 328.5C151.299 328.833 150.473 329 149.499 329H144.419ZM146.099 321.12H149.219C150.113 321.12 150.799 320.913 151.279 320.5C151.759 320.073 151.999 319.487 151.999 318.74C151.999 318.033 151.759 317.467 151.279 317.04C150.813 316.613 150.106 316.4 149.159 316.4H146.099V321.12ZM146.099 327.6H149.319C150.279 327.6 151.019 327.38 151.539 326.94C152.059 326.487 152.319 325.86 152.319 325.06C152.319 324.273 152.046 323.647 151.499 323.18C150.953 322.7 150.213 322.46 149.279 322.46H146.099V327.6ZM156.451 329V315H165.111V316.38H158.131V321.26H164.511V322.62H158.131V327.62H165.111V329H156.451ZM173.76 329.24C172.453 329.24 171.306 328.94 170.32 328.34C169.333 327.727 168.566 326.88 168.02 325.8C167.473 324.707 167.2 323.447 167.2 322.02C167.2 320.593 167.473 319.333 168.02 318.24C168.58 317.147 169.366 316.293 170.38 315.68C171.406 315.067 172.613 314.76 174 314.76C175.573 314.76 176.88 315.14 177.92 315.9C178.973 316.66 179.653 317.707 179.96 319.04H178.02C177.833 318.2 177.386 317.533 176.68 317.04C175.986 316.547 175.093 316.3 174 316.3C172.973 316.3 172.08 316.533 171.32 317C170.56 317.453 169.966 318.107 169.54 318.96C169.126 319.813 168.92 320.833 168.92 322.02C168.92 323.207 169.126 324.227 169.54 325.08C169.953 325.933 170.526 326.593 171.26 327.06C171.993 327.513 172.846 327.74 173.82 327.74C175.313 327.74 176.44 327.307 177.2 326.44C177.96 325.56 178.393 324.36 178.5 322.84H174.46V321.52H180.22V329H178.68L178.54 326.7C178.033 327.513 177.413 328.14 176.68 328.58C175.946 329.02 174.973 329.24 173.76 329.24ZM182.876 329V315H184.556V329H182.876ZM187.525 329V315H189.205L196.665 326.22V315H198.345V329H196.665L189.205 317.78V329H187.525ZM201.314 329V315H202.994L210.454 326.22V315H212.134V329H210.454L202.994 317.78V329H201.314ZM215.103 329V315H223.763V316.38H216.783V321.26H223.163V322.62H216.783V327.62H223.763V329H215.103ZM226.392 329V315H230.912C232.005 315 232.899 315.18 233.592 315.54C234.285 315.9 234.799 316.393 235.132 317.02C235.465 317.647 235.632 318.34 235.632 319.1C235.632 319.98 235.392 320.773 234.912 321.48C234.445 322.187 233.712 322.687 232.712 322.98L235.772 329H233.792L230.952 323.22H230.832H228.072V329H226.392ZM228.072 321.9H230.792C231.872 321.9 232.659 321.64 233.152 321.12C233.645 320.6 233.892 319.933 233.892 319.12C233.892 318.293 233.645 317.64 233.152 317.16C232.672 316.667 231.879 316.42 230.772 316.42H228.072V321.9ZM242.708 329.24C241.681 329.24 240.788 329.053 240.028 328.68C239.268 328.307 238.681 327.787 238.268 327.12C237.854 326.453 237.648 325.68 237.648 324.8H239.408C239.408 325.347 239.534 325.853 239.788 326.32C240.041 326.773 240.408 327.14 240.888 327.42C241.381 327.687 241.988 327.82 242.708 327.82C243.654 327.82 244.388 327.593 244.908 327.14C245.428 326.687 245.688 326.12 245.688 325.44C245.688 324.88 245.568 324.433 245.328 324.1C245.088 323.753 244.761 323.473 244.348 323.26C243.948 323.047 243.481 322.86 242.948 322.7C242.428 322.54 241.881 322.36 241.308 322.16C240.228 321.787 239.428 321.327 238.908 320.78C238.388 320.22 238.128 319.493 238.128 318.6C238.114 317.853 238.288 317.193 238.648 316.62C239.008 316.033 239.514 315.58 240.168 315.26C240.834 314.927 241.621 314.76 242.528 314.76C243.421 314.76 244.194 314.927 244.848 315.26C245.514 315.593 246.028 316.053 246.388 316.64C246.761 317.227 246.954 317.893 246.968 318.64H245.208C245.208 318.253 245.108 317.873 244.908 317.5C244.708 317.113 244.401 316.8 243.988 316.56C243.588 316.32 243.081 316.2 242.468 316.2C241.708 316.187 241.081 316.38 240.588 316.78C240.108 317.18 239.868 317.733 239.868 318.44C239.868 319.04 240.034 319.5 240.368 319.82C240.714 320.14 241.194 320.407 241.808 320.62C242.421 320.82 243.128 321.053 243.928 321.32C244.594 321.56 245.194 321.84 245.728 322.16C246.261 322.48 246.674 322.893 246.968 323.4C247.274 323.907 247.428 324.553 247.428 325.34C247.428 326.007 247.254 326.64 246.908 327.24C246.561 327.827 246.034 328.307 245.328 328.68C244.634 329.053 243.761 329.24 242.708 329.24Z" fill="#111010"/>
</g>
<defs>
<clipPath id="clip0_134_265">
<rect width="280" height="352" fill="white"/>
</clipPath>
</defs>
</svg>
