<svg width="380" height="74" viewBox="0 0 380 74" fill="none" xmlns="http://www.w3.org/2000/svg">
<path d="M0.5 25C0.5 14.2304 9.23045 5.5 20 5.5H284C294.77 5.5 303.5 14.2304 303.5 25V49C303.5 59.7696 294.77 68.5 284 68.5H20C9.23044 68.5 0.5 59.7696 0.5 49V25Z" fill="white" stroke="#111010"/>
<path d="M267.5 37C267.5 16.8416 283.842 0.5 304 0.5H342C362.158 0.5 378.5 16.8416 378.5 37C378.5 57.1584 362.158 73.5 342 73.5H304C283.842 73.5 267.5 57.1584 267.5 37Z" fill="#FFDB5B" stroke="#111010"/>
<path d="M36.0693 43V30.4H43.8633V31.642H37.5813V36.034H43.3233V37.258H37.5813V41.758H43.8633V43H36.0693ZM46.1395 43V34.072H47.5075L47.5975 35.674C47.8855 35.11 48.2995 34.666 48.8395 34.342C49.3795 34.018 49.9915 33.856 50.6755 33.856C51.7315 33.856 52.5715 34.18 53.1955 34.828C53.8315 35.464 54.1495 36.448 54.1495 37.78V43H52.6375V37.942C52.6375 36.082 51.8695 35.152 50.3335 35.152C49.5655 35.152 48.9235 35.434 48.4075 35.998C47.9035 36.55 47.6515 37.342 47.6515 38.374V43H46.1395ZM59.9682 43C59.1522 43 58.5102 42.802 58.0422 42.406C57.5742 42.01 57.3402 41.296 57.3402 40.264V35.35H55.7922V34.072H57.3402L57.5382 31.93H58.8522V34.072H61.4802V35.35H58.8522V40.264C58.8522 40.828 58.9662 41.212 59.1942 41.416C59.4222 41.608 59.8242 41.704 60.4002 41.704H61.3362V43H59.9682ZM67.1691 43.216C66.3171 43.216 65.5611 43.024 64.9011 42.64C64.2411 42.244 63.7191 41.698 63.3351 41.002C62.9631 40.306 62.7771 39.484 62.7771 38.536C62.7771 37.6 62.9631 36.784 63.3351 36.088C63.7071 35.38 64.2231 34.834 64.8831 34.45C65.5551 34.054 66.3291 33.856 67.2051 33.856C68.0691 33.856 68.8131 34.054 69.4371 34.45C70.0731 34.834 70.5591 35.344 70.8951 35.98C71.2311 36.616 71.3991 37.3 71.3991 38.032C71.3991 38.164 71.3931 38.296 71.3811 38.428C71.3811 38.56 71.3811 38.71 71.3811 38.878H64.2711C64.3071 39.562 64.4631 40.132 64.7391 40.588C65.0271 41.032 65.3811 41.368 65.8011 41.596C66.2331 41.824 66.6891 41.938 67.1691 41.938C67.7931 41.938 68.3151 41.794 68.7351 41.506C69.1551 41.218 69.4611 40.828 69.6531 40.336H71.1471C70.9071 41.164 70.4451 41.854 69.7611 42.406C69.0891 42.946 68.2251 43.216 67.1691 43.216ZM67.1691 35.134C66.4491 35.134 65.8071 35.356 65.2431 35.8C64.6911 36.232 64.3731 36.868 64.2891 37.708H69.9051C69.8691 36.904 69.5931 36.274 69.0771 35.818C68.5611 35.362 67.9251 35.134 67.1691 35.134ZM73.4031 43V34.072H74.7711L74.8971 35.782C75.1731 35.194 75.5931 34.726 76.1571 34.378C76.7211 34.03 77.4171 33.856 78.2451 33.856V35.44H77.8311C77.3031 35.44 76.8171 35.536 76.3731 35.728C75.9291 35.908 75.5751 36.22 75.3111 36.664C75.0471 37.108 74.9151 37.72 74.9151 38.5V43H73.4031ZM85.6779 46.96L87.8919 42.136H87.3699L83.8239 34.072H85.4619L88.4139 41.02L91.5459 34.072H93.1119L87.2619 46.96H85.6779ZM97.9321 43.216C97.0921 43.216 96.3361 43.024 95.6641 42.64C94.9921 42.256 94.4581 41.716 94.0621 41.02C93.6781 40.312 93.4861 39.484 93.4861 38.536C93.4861 37.588 93.6841 36.766 94.0801 36.07C94.4761 35.362 95.0101 34.816 95.6821 34.432C96.3661 34.048 97.1281 33.856 97.9681 33.856C98.8081 33.856 99.5641 34.048 100.236 34.432C100.908 34.816 101.436 35.362 101.82 36.07C102.216 36.766 102.414 37.588 102.414 38.536C102.414 39.484 102.216 40.312 101.82 41.02C101.424 41.716 100.884 42.256 100.2 42.64C99.5281 43.024 98.7721 43.216 97.9321 43.216ZM97.9321 41.92C98.4481 41.92 98.9281 41.794 99.3721 41.542C99.8161 41.29 100.176 40.912 100.452 40.408C100.728 39.904 100.866 39.28 100.866 38.536C100.866 37.792 100.728 37.168 100.452 36.664C100.188 36.16 99.8341 35.782 99.3901 35.53C98.9461 35.278 98.4721 35.152 97.9681 35.152C97.4521 35.152 96.9721 35.278 96.5281 35.53C96.0841 35.782 95.7241 36.16 95.4481 36.664C95.1721 37.168 95.0341 37.792 95.0341 38.536C95.0341 39.28 95.1721 39.904 95.4481 40.408C95.7241 40.912 96.0781 41.29 96.5101 41.542C96.9541 41.794 97.4281 41.92 97.9321 41.92ZM107.774 43.216C106.718 43.216 105.878 42.898 105.254 42.262C104.63 41.614 104.318 40.624 104.318 39.292V34.072H105.83V39.13C105.83 40.99 106.592 41.92 108.116 41.92C108.896 41.92 109.538 41.644 110.042 41.092C110.558 40.528 110.816 39.73 110.816 38.698V34.072H112.328V43H110.96L110.852 41.398C110.576 41.962 110.162 42.406 109.61 42.73C109.07 43.054 108.458 43.216 107.774 43.216ZM114.817 43V34.072H116.185L116.311 35.782C116.587 35.194 117.007 34.726 117.571 34.378C118.135 34.03 118.831 33.856 119.659 33.856V35.44H119.245C118.717 35.44 118.231 35.536 117.787 35.728C117.343 35.908 116.989 36.22 116.725 36.664C116.461 37.108 116.329 37.72 116.329 38.5V43H114.817ZM130.134 43.216C129.282 43.216 128.526 43.024 127.866 42.64C127.206 42.244 126.684 41.698 126.3 41.002C125.928 40.306 125.742 39.484 125.742 38.536C125.742 37.6 125.928 36.784 126.3 36.088C126.672 35.38 127.188 34.834 127.848 34.45C128.52 34.054 129.294 33.856 130.17 33.856C131.034 33.856 131.778 34.054 132.402 34.45C133.038 34.834 133.524 35.344 133.86 35.98C134.196 36.616 134.364 37.3 134.364 38.032C134.364 38.164 134.358 38.296 134.346 38.428C134.346 38.56 134.346 38.71 134.346 38.878H127.236C127.272 39.562 127.428 40.132 127.704 40.588C127.992 41.032 128.346 41.368 128.766 41.596C129.198 41.824 129.654 41.938 130.134 41.938C130.758 41.938 131.28 41.794 131.7 41.506C132.12 41.218 132.426 40.828 132.618 40.336H134.112C133.872 41.164 133.41 41.854 132.726 42.406C132.054 42.946 131.19 43.216 130.134 43.216ZM130.134 35.134C129.414 35.134 128.772 35.356 128.208 35.8C127.656 36.232 127.338 36.868 127.254 37.708H132.87C132.834 36.904 132.558 36.274 132.042 35.818C131.526 35.362 130.89 35.134 130.134 35.134ZM136.368 43V34.072H137.736L137.844 35.368C138.132 34.888 138.516 34.516 138.996 34.252C139.476 33.988 140.016 33.856 140.616 33.856C141.324 33.856 141.93 34 142.434 34.288C142.95 34.576 143.346 35.014 143.622 35.602C143.934 35.062 144.36 34.636 144.9 34.324C145.452 34.012 146.046 33.856 146.682 33.856C147.75 33.856 148.602 34.18 149.238 34.828C149.874 35.464 150.192 36.448 150.192 37.78V43H148.698V37.942C148.698 37.018 148.512 36.322 148.14 35.854C147.768 35.386 147.234 35.152 146.538 35.152C145.818 35.152 145.218 35.434 144.738 35.998C144.27 36.55 144.036 37.342 144.036 38.374V43H142.524V37.942C142.524 37.018 142.338 36.322 141.966 35.854C141.594 35.386 141.06 35.152 140.364 35.152C139.656 35.152 139.062 35.434 138.582 35.998C138.114 36.55 137.88 37.342 137.88 38.374V43H136.368ZM155.44 43.216C154.696 43.216 154.078 43.09 153.586 42.838C153.094 42.586 152.728 42.25 152.488 41.83C152.248 41.41 152.128 40.954 152.128 40.462C152.128 39.55 152.476 38.848 153.172 38.356C153.868 37.864 154.816 37.618 156.016 37.618H158.428V37.51C158.428 36.73 158.224 36.142 157.816 35.746C157.408 35.338 156.862 35.134 156.178 35.134C155.59 35.134 155.08 35.284 154.648 35.584C154.228 35.872 153.964 36.298 153.856 36.862H152.308C152.368 36.214 152.584 35.668 152.956 35.224C153.34 34.78 153.814 34.444 154.378 34.216C154.942 33.976 155.542 33.856 156.178 33.856C157.426 33.856 158.362 34.192 158.986 34.864C159.622 35.524 159.94 36.406 159.94 37.51V43H158.59L158.5 41.398C158.248 41.902 157.876 42.334 157.384 42.694C156.904 43.042 156.256 43.216 155.44 43.216ZM155.674 41.938C156.25 41.938 156.742 41.788 157.15 41.488C157.57 41.188 157.888 40.798 158.104 40.318C158.32 39.838 158.428 39.334 158.428 38.806V38.788H156.142C155.254 38.788 154.624 38.944 154.252 39.256C153.892 39.556 153.712 39.934 153.712 40.39C153.712 40.858 153.88 41.236 154.216 41.524C154.564 41.8 155.05 41.938 155.674 41.938ZM163.126 32.092C162.826 32.092 162.574 31.996 162.37 31.804C162.178 31.6 162.082 31.348 162.082 31.048C162.082 30.76 162.178 30.52 162.37 30.328C162.574 30.136 162.826 30.04 163.126 30.04C163.414 30.04 163.66 30.136 163.864 30.328C164.068 30.52 164.17 30.76 164.17 31.048C164.17 31.348 164.068 31.6 163.864 31.804C163.66 31.996 163.414 32.092 163.126 32.092ZM162.37 43V34.072H163.882V43H162.37ZM166.514 43V30.04H168.026V43H166.514Z" fill="black"/>
<path d="M307.717 43.216C306.793 43.216 305.989 43.048 305.305 42.712C304.621 42.376 304.093 41.908 303.721 41.308C303.349 40.708 303.163 40.012 303.163 39.22H304.747C304.747 39.712 304.861 40.168 305.089 40.588C305.317 40.996 305.647 41.326 306.079 41.578C306.523 41.818 307.069 41.938 307.717 41.938C308.569 41.938 309.229 41.734 309.697 41.326C310.165 40.918 310.399 40.408 310.399 39.796C310.399 39.292 310.291 38.89 310.075 38.59C309.859 38.278 309.565 38.026 309.193 37.834C308.833 37.642 308.413 37.474 307.933 37.33C307.465 37.186 306.973 37.024 306.457 36.844C305.485 36.508 304.765 36.094 304.297 35.602C303.829 35.098 303.595 34.444 303.595 33.64C303.583 32.968 303.739 32.374 304.063 31.858C304.387 31.33 304.843 30.922 305.431 30.634C306.031 30.334 306.739 30.184 307.555 30.184C308.359 30.184 309.055 30.334 309.643 30.634C310.243 30.934 310.705 31.348 311.029 31.876C311.365 32.404 311.539 33.004 311.551 33.676H309.967C309.967 33.328 309.877 32.986 309.697 32.65C309.517 32.302 309.241 32.02 308.869 31.804C308.509 31.588 308.053 31.48 307.501 31.48C306.817 31.468 306.253 31.642 305.809 32.002C305.377 32.362 305.161 32.86 305.161 33.496C305.161 34.036 305.311 34.45 305.611 34.738C305.923 35.026 306.355 35.266 306.907 35.458C307.459 35.638 308.095 35.848 308.815 36.088C309.415 36.304 309.955 36.556 310.435 36.844C310.915 37.132 311.287 37.504 311.551 37.96C311.827 38.416 311.965 38.998 311.965 39.706C311.965 40.306 311.809 40.876 311.497 41.416C311.185 41.944 310.711 42.376 310.075 42.712C309.451 43.048 308.665 43.216 307.717 43.216ZM318.033 43.216C317.181 43.216 316.425 43.024 315.765 42.64C315.105 42.244 314.583 41.698 314.199 41.002C313.827 40.306 313.641 39.484 313.641 38.536C313.641 37.6 313.827 36.784 314.199 36.088C314.571 35.38 315.087 34.834 315.747 34.45C316.419 34.054 317.193 33.856 318.069 33.856C318.933 33.856 319.677 34.054 320.301 34.45C320.937 34.834 321.423 35.344 321.759 35.98C322.095 36.616 322.263 37.3 322.263 38.032C322.263 38.164 322.257 38.296 322.245 38.428C322.245 38.56 322.245 38.71 322.245 38.878H315.135C315.171 39.562 315.327 40.132 315.603 40.588C315.891 41.032 316.245 41.368 316.665 41.596C317.097 41.824 317.553 41.938 318.033 41.938C318.657 41.938 319.179 41.794 319.599 41.506C320.019 41.218 320.325 40.828 320.517 40.336H322.011C321.771 41.164 321.309 41.854 320.625 42.406C319.953 42.946 319.089 43.216 318.033 43.216ZM318.033 35.134C317.313 35.134 316.671 35.356 316.107 35.8C315.555 36.232 315.237 36.868 315.153 37.708H320.769C320.733 36.904 320.457 36.274 319.941 35.818C319.425 35.362 318.789 35.134 318.033 35.134ZM324.267 43V34.072H325.635L325.725 35.674C326.013 35.11 326.427 34.666 326.967 34.342C327.507 34.018 328.119 33.856 328.803 33.856C329.859 33.856 330.699 34.18 331.323 34.828C331.959 35.464 332.277 36.448 332.277 37.78V43H330.765V37.942C330.765 36.082 329.997 35.152 328.461 35.152C327.693 35.152 327.051 35.434 326.535 35.998C326.031 36.55 325.779 37.342 325.779 38.374V43H324.267ZM338.618 43.216C337.73 43.216 336.95 43.012 336.278 42.604C335.618 42.196 335.102 41.638 334.73 40.93C334.37 40.222 334.19 39.418 334.19 38.518C334.19 37.618 334.376 36.82 334.748 36.124C335.12 35.416 335.636 34.864 336.296 34.468C336.956 34.06 337.736 33.856 338.636 33.856C339.368 33.856 340.016 34.006 340.58 34.306C341.144 34.606 341.582 35.026 341.894 35.566V30.04H343.406V43H342.038L341.894 41.524C341.606 41.956 341.192 42.346 340.652 42.694C340.112 43.042 339.434 43.216 338.618 43.216ZM338.78 41.902C339.38 41.902 339.908 41.764 340.364 41.488C340.832 41.2 341.192 40.804 341.444 40.3C341.708 39.796 341.84 39.208 341.84 38.536C341.84 37.864 341.708 37.276 341.444 36.772C341.192 36.268 340.832 35.878 340.364 35.602C339.908 35.314 339.38 35.17 338.78 35.17C338.192 35.17 337.664 35.314 337.196 35.602C336.74 35.878 336.38 36.268 336.116 36.772C335.864 37.276 335.738 37.864 335.738 38.536C335.738 39.208 335.864 39.796 336.116 40.3C336.38 40.804 336.74 41.2 337.196 41.488C337.664 41.764 338.192 41.902 338.78 41.902Z" fill="black"/>
</svg>
