<svg width="332" height="174" viewBox="0 0 332 174" fill="none" xmlns="http://www.w3.org/2000/svg">
<rect width="331.188" height="1" fill="#111010"/>
<rect y="57" width="331.188" height="1" fill="#111010"/>
<rect y="114" width="331.188" height="1" fill="#111010"/>
<path d="M19.808 148.359V138.263H16.464V137.159H24.496V138.263H21.152V148.359H19.808ZM30.647 148.551C29.5483 148.551 28.583 148.311 27.751 147.831C26.9297 147.341 26.2843 146.658 25.815 145.783C25.3563 144.909 25.127 143.901 25.127 142.759C25.127 141.618 25.3563 140.615 25.815 139.751C26.2843 138.877 26.9297 138.194 27.751 137.703C28.583 137.213 29.5483 136.967 30.647 136.967C31.7563 136.967 32.7217 137.213 33.543 137.703C34.375 138.194 35.0203 138.877 35.479 139.751C35.9377 140.615 36.167 141.618 36.167 142.759C36.167 143.901 35.9377 144.909 35.479 145.783C35.0203 146.658 34.375 147.341 33.543 147.831C32.7217 148.311 31.7563 148.551 30.647 148.551ZM30.647 147.367C31.4683 147.367 32.1883 147.186 32.807 146.823C33.4363 146.45 33.9217 145.922 34.263 145.239C34.615 144.546 34.791 143.719 34.791 142.759C34.791 141.799 34.615 140.978 34.263 140.295C33.9217 139.613 33.4363 139.09 32.807 138.727C32.1883 138.354 31.4683 138.167 30.647 138.167C29.8257 138.167 29.1003 138.354 28.471 138.727C27.8523 139.09 27.367 139.613 27.015 140.295C26.6737 140.978 26.503 141.799 26.503 142.759C26.503 143.719 26.6737 144.546 27.015 145.239C27.367 145.922 27.8523 146.45 28.471 146.823C29.1003 147.186 29.8257 147.367 30.647 147.367ZM43.1939 148.551C42.0952 148.551 41.1299 148.311 40.2979 147.831C39.4765 147.341 38.8312 146.658 38.3619 145.783C37.9032 144.909 37.6739 143.901 37.6739 142.759C37.6739 141.618 37.9032 140.615 38.3619 139.751C38.8312 138.877 39.4765 138.194 40.2979 137.703C41.1299 137.213 42.0952 136.967 43.1939 136.967C44.3032 136.967 45.2685 137.213 46.0899 137.703C46.9219 138.194 47.5672 138.877 48.0259 139.751C48.4845 140.615 48.7139 141.618 48.7139 142.759C48.7139 143.901 48.4845 144.909 48.0259 145.783C47.5672 146.658 46.9219 147.341 46.0899 147.831C45.2685 148.311 44.3032 148.551 43.1939 148.551ZM43.1939 147.367C44.0152 147.367 44.7352 147.186 45.3539 146.823C45.9832 146.45 46.4685 145.922 46.8099 145.239C47.1619 144.546 47.3379 143.719 47.3379 142.759C47.3379 141.799 47.1619 140.978 46.8099 140.295C46.4685 139.613 45.9832 139.09 45.3539 138.727C44.7352 138.354 44.0152 138.167 43.1939 138.167C42.3725 138.167 41.6472 138.354 41.0179 138.727C40.3992 139.09 39.9139 139.613 39.5619 140.295C39.2205 140.978 39.0499 141.799 39.0499 142.759C39.0499 143.719 39.2205 144.546 39.5619 145.239C39.9139 145.922 40.3992 146.45 41.0179 146.823C41.6472 147.186 42.3725 147.367 43.1939 147.367ZM50.6528 148.359V137.159H51.9968V147.287H57.2128V148.359H50.6528ZM62.1426 148.551C61.3213 148.551 60.6066 148.402 59.9986 148.103C59.3906 147.805 58.9213 147.389 58.5906 146.855C58.26 146.322 58.0946 145.703 58.0946 144.999H59.5026C59.5026 145.437 59.604 145.842 59.8066 146.215C60.0093 146.578 60.3026 146.871 60.6866 147.095C61.0813 147.309 61.5666 147.415 62.1426 147.415C62.9 147.415 63.4866 147.234 63.9026 146.871C64.3186 146.509 64.5266 146.055 64.5266 145.511C64.5266 145.063 64.4306 144.706 64.2386 144.439C64.0466 144.162 63.7853 143.938 63.4546 143.767C63.1346 143.597 62.7613 143.447 62.3346 143.319C61.9186 143.191 61.4813 143.047 61.0226 142.887C60.1586 142.589 59.5186 142.221 59.1026 141.783C58.6866 141.335 58.4786 140.754 58.4786 140.039C58.468 139.442 58.6066 138.914 58.8946 138.455C59.1826 137.986 59.588 137.623 60.1106 137.367C60.644 137.101 61.2733 136.967 61.9986 136.967C62.7133 136.967 63.332 137.101 63.8546 137.367C64.388 137.634 64.7986 138.002 65.0866 138.471C65.3853 138.941 65.54 139.474 65.5506 140.071H64.1426C64.1426 139.762 64.0626 139.458 63.9026 139.159C63.7426 138.85 63.4973 138.599 63.1666 138.407C62.8466 138.215 62.4413 138.119 61.9506 138.119C61.3426 138.109 60.8413 138.263 60.4466 138.583C60.0626 138.903 59.8706 139.346 59.8706 139.911C59.8706 140.391 60.004 140.759 60.2706 141.015C60.548 141.271 60.932 141.485 61.4226 141.655C61.9133 141.815 62.4786 142.002 63.1186 142.215C63.652 142.407 64.132 142.631 64.5586 142.887C64.9853 143.143 65.316 143.474 65.5506 143.879C65.796 144.285 65.9186 144.802 65.9186 145.431C65.9186 145.965 65.78 146.471 65.5026 146.951C65.2253 147.421 64.804 147.805 64.2386 148.103C63.684 148.402 62.9853 148.551 62.1426 148.551ZM71.355 148.359L75.483 137.159H76.907L81.019 148.359H79.595L78.571 145.479H73.803L72.763 148.359H71.355ZM74.203 144.391H78.171L76.187 138.855L74.203 144.391ZM82.684 148.359V137.159H84.028L89.996 146.135V137.159H91.34V148.359H89.996L84.028 139.383V148.359H82.684ZM93.7153 148.359V137.159H97.1553C99.1286 137.159 100.579 137.661 101.507 138.663C102.446 139.666 102.915 141.042 102.915 142.791C102.915 144.509 102.446 145.869 101.507 146.871C100.579 147.863 99.1286 148.359 97.1553 148.359H93.7153ZM95.0593 147.239H97.1233C98.2113 147.239 99.0753 147.063 99.7153 146.711C100.366 146.349 100.83 145.837 101.107 145.175C101.385 144.503 101.523 143.709 101.523 142.791C101.523 141.853 101.385 141.047 101.107 140.375C100.83 139.703 100.366 139.186 99.7153 138.823C99.0753 138.461 98.2113 138.279 97.1233 138.279H95.0593V147.239ZM114.002 148.551C112.904 148.551 111.954 148.311 111.154 147.831C110.365 147.341 109.752 146.663 109.314 145.799C108.877 144.925 108.658 143.911 108.658 142.759C108.658 141.618 108.877 140.615 109.314 139.751C109.752 138.877 110.365 138.194 111.154 137.703C111.954 137.213 112.904 136.967 114.002 136.967C115.282 136.967 116.322 137.277 117.122 137.895C117.933 138.503 118.45 139.357 118.674 140.455H117.186C117.016 139.762 116.664 139.207 116.13 138.791C115.608 138.365 114.898 138.151 114.002 138.151C113.202 138.151 112.504 138.338 111.906 138.711C111.309 139.074 110.845 139.602 110.514 140.295C110.194 140.978 110.034 141.799 110.034 142.759C110.034 143.719 110.194 144.546 110.514 145.239C110.845 145.922 111.309 146.45 111.906 146.823C112.504 147.186 113.202 147.367 114.002 147.367C114.898 147.367 115.608 147.165 116.13 146.759C116.664 146.343 117.016 145.794 117.186 145.111H118.674C118.45 146.189 117.933 147.031 117.122 147.639C116.322 148.247 115.282 148.551 114.002 148.551ZM120.606 148.359V137.159H121.95V147.287H127.166V148.359H120.606ZM128.308 148.359L132.436 137.159H133.86L137.972 148.359H136.548L135.524 145.479H130.756L129.716 148.359H128.308ZM131.156 144.391H135.124L133.14 138.855L131.156 144.391ZM141.249 148.359V144.103L137.601 137.159H139.121L141.921 142.823L144.721 137.159H146.225L142.593 144.103V148.359H141.249ZM151.965 148.359V137.159H153.309V148.359H151.965ZM155.684 148.359V137.159H157.028L162.996 146.135V137.159H164.34V148.359H162.996L157.028 139.383V148.359H155.684ZM171.627 148.551C170.529 148.551 169.579 148.311 168.779 147.831C167.99 147.341 167.377 146.663 166.939 145.799C166.502 144.925 166.283 143.911 166.283 142.759C166.283 141.618 166.502 140.615 166.939 139.751C167.377 138.877 167.99 138.194 168.779 137.703C169.579 137.213 170.529 136.967 171.627 136.967C172.907 136.967 173.947 137.277 174.747 137.895C175.558 138.503 176.075 139.357 176.299 140.455H174.811C174.641 139.762 174.289 139.207 173.755 138.791C173.233 138.365 172.523 138.151 171.627 138.151C170.827 138.151 170.129 138.338 169.531 138.711C168.934 139.074 168.47 139.602 168.139 140.295C167.819 140.978 167.659 141.799 167.659 142.759C167.659 143.719 167.819 144.546 168.139 145.239C168.47 145.922 168.934 146.45 169.531 146.823C170.129 147.186 170.827 147.367 171.627 147.367C172.523 147.367 173.233 147.165 173.755 146.759C174.289 146.343 174.641 145.794 174.811 145.111H176.299C176.075 146.189 175.558 147.031 174.747 147.639C173.947 148.247 172.907 148.551 171.627 148.551ZM178.231 148.359V137.159H179.575V147.287H184.791V148.359H178.231ZM190.201 148.551C189.433 148.551 188.734 148.402 188.105 148.103C187.486 147.794 186.99 147.319 186.617 146.679C186.243 146.039 186.057 145.223 186.057 144.231V137.159H187.401V144.247C187.401 145.335 187.662 146.125 188.185 146.615C188.707 147.106 189.39 147.351 190.233 147.351C191.075 147.351 191.753 147.106 192.265 146.615C192.777 146.125 193.033 145.335 193.033 144.247V137.159H194.377V144.231C194.377 145.223 194.19 146.039 193.817 146.679C193.443 147.319 192.942 147.794 192.313 148.103C191.683 148.402 190.979 148.551 190.201 148.551ZM196.653 148.359V137.159H200.093C202.066 137.159 203.517 137.661 204.445 138.663C205.383 139.666 205.853 141.042 205.853 142.791C205.853 144.509 205.383 145.869 204.445 146.871C203.517 147.863 202.066 148.359 200.093 148.359H196.653ZM197.997 147.239H200.061C201.149 147.239 202.013 147.063 202.653 146.711C203.303 146.349 203.767 145.837 204.045 145.175C204.322 144.503 204.461 143.709 204.461 142.791C204.461 141.853 204.322 141.047 204.045 140.375C203.767 139.703 203.303 139.186 202.653 138.823C202.013 138.461 201.149 138.279 200.061 138.279H197.997V147.239ZM207.793 148.359V137.159H214.721V138.263H209.137V142.167H214.241V143.255H209.137V147.255H214.721V148.359H207.793ZM216.825 148.359V137.159H220.265C222.238 137.159 223.689 137.661 224.617 138.663C225.555 139.666 226.025 141.042 226.025 142.791C226.025 144.509 225.555 145.869 224.617 146.871C223.689 147.863 222.238 148.359 220.265 148.359H216.825ZM218.169 147.239H220.233C221.321 147.239 222.185 147.063 222.825 146.711C223.475 146.349 223.939 145.837 224.217 145.175C224.494 144.503 224.633 143.709 224.633 142.791C224.633 141.853 224.494 141.047 224.217 140.375C223.939 139.703 223.475 139.186 222.825 138.823C222.185 138.461 221.321 138.279 220.233 138.279H218.169V147.239Z" fill="#111010"/>
<path d="M17.184 34.3594V23.1594H24V24.2634H18.528V28.1994H23.184V29.2874H18.528V34.3594H17.184ZM25.7309 34.3594V23.1594H29.3469C30.2215 23.1594 30.9362 23.3034 31.4909 23.5914C32.0455 23.8794 32.4562 24.274 32.7229 24.7754C32.9895 25.2767 33.1229 25.8314 33.1229 26.4394C33.1229 27.1434 32.9309 27.778 32.5469 28.3434C32.1735 28.9087 31.5869 29.3087 30.7869 29.5434L33.2349 34.3594H31.6509L29.3789 29.7354H29.2829H27.0749V34.3594H25.7309ZM27.0749 28.6794H29.2509C30.1149 28.6794 30.7442 28.4714 31.1389 28.0554C31.5335 27.6394 31.7309 27.106 31.7309 26.4554C31.7309 25.794 31.5335 25.2714 31.1389 24.8874C30.7549 24.4927 30.1202 24.2954 29.2349 24.2954H27.0749V28.6794ZM35.2153 34.3594V23.1594H42.1433V24.2634H36.5593V28.1674H41.6633V29.2554H36.5593V33.2554H42.1433V34.3594H35.2153ZM44.2465 34.3594V23.1594H51.1745V24.2634H45.5905V28.1674H50.6945V29.2554H45.5905V33.2554H51.1745V34.3594H44.2465ZM61.0801 34.5514C60.2588 34.5514 59.5441 34.402 58.9361 34.1034C58.3281 33.8047 57.8588 33.3887 57.5281 32.8554C57.1975 32.322 57.0321 31.7034 57.0321 30.9994H58.4401C58.4401 31.4367 58.5415 31.842 58.7441 32.2154C58.9468 32.578 59.2401 32.8714 59.6241 33.0954C60.0188 33.3087 60.5041 33.4154 61.0801 33.4154C61.8375 33.4154 62.4241 33.234 62.8401 32.8714C63.2561 32.5087 63.4641 32.0554 63.4641 31.5114C63.4641 31.0634 63.3681 30.706 63.1761 30.4394C62.9841 30.162 62.7228 29.938 62.3921 29.7674C62.0721 29.5967 61.6988 29.4474 61.2721 29.3194C60.8561 29.1914 60.4188 29.0474 59.9601 28.8874C59.0961 28.5887 58.4561 28.2207 58.0401 27.7834C57.6241 27.3354 57.4161 26.754 57.4161 26.0394C57.4055 25.442 57.5441 24.914 57.8321 24.4554C58.1201 23.986 58.5255 23.6234 59.0481 23.3674C59.5815 23.1007 60.2108 22.9674 60.9361 22.9674C61.6508 22.9674 62.2695 23.1007 62.7921 23.3674C63.3255 23.634 63.7361 24.002 64.0241 24.4714C64.3228 24.9407 64.4775 25.474 64.4881 26.0714H63.0801C63.0801 25.762 63.0001 25.458 62.8401 25.1594C62.6801 24.85 62.4348 24.5994 62.1041 24.4074C61.7841 24.2154 61.3788 24.1194 60.8881 24.1194C60.2801 24.1087 59.7788 24.2634 59.3841 24.5834C59.0001 24.9034 58.8081 25.346 58.8081 25.9114C58.8081 26.3914 58.9415 26.7594 59.2081 27.0154C59.4855 27.2714 59.8695 27.4847 60.3601 27.6554C60.8508 27.8154 61.4161 28.002 62.0561 28.2154C62.5895 28.4074 63.0695 28.6314 63.4961 28.8874C63.9228 29.1434 64.2535 29.474 64.4881 29.8794C64.7335 30.2847 64.8561 30.802 64.8561 31.4314C64.8561 31.9647 64.7175 32.4714 64.4401 32.9514C64.1628 33.4207 63.7415 33.8047 63.1761 34.1034C62.6215 34.402 61.9228 34.5514 61.0801 34.5514ZM66.7621 34.3594V23.1594H68.1061V28.1034H73.9141V23.1594H75.2581V34.3594H73.9141V29.2074H68.1061V34.3594H66.7621ZM77.6215 34.3594V23.1594H78.9655V34.3594H77.6215ZM81.3403 34.3594V23.1594H85.0203C85.8949 23.1594 86.6149 23.3034 87.1803 23.5914C87.7456 23.8794 88.1616 24.2687 88.4283 24.7594C88.7056 25.25 88.8443 25.8047 88.8443 26.4234C88.8443 27.0314 88.7109 27.5807 88.4443 28.0714C88.1776 28.562 87.7616 28.9567 87.1963 29.2554C86.6309 29.5434 85.9056 29.6874 85.0203 29.6874H82.6843V34.3594H81.3403ZM82.6843 28.5514H84.9883C85.8843 28.5514 86.5189 28.3647 86.8923 27.9914C87.2763 27.6074 87.4683 27.0847 87.4683 26.4234C87.4683 25.7514 87.2763 25.2287 86.8923 24.8554C86.5189 24.4714 85.8843 24.2794 84.9883 24.2794H82.6843V28.5514ZM90.6059 34.3594V23.1594H94.2859C95.1605 23.1594 95.8805 23.3034 96.4459 23.5914C97.0112 23.8794 97.4272 24.2687 97.6939 24.7594C97.9712 25.25 98.1099 25.8047 98.1099 26.4234C98.1099 27.0314 97.9765 27.5807 97.7099 28.0714C97.4432 28.562 97.0272 28.9567 96.4619 29.2554C95.8965 29.5434 95.1712 29.6874 94.2859 29.6874H91.9499V34.3594H90.6059ZM91.9499 28.5514H94.2539C95.1499 28.5514 95.7845 28.3647 96.1579 27.9914C96.5419 27.6074 96.7339 27.0847 96.7339 26.4234C96.7339 25.7514 96.5419 25.2287 96.1579 24.8554C95.7845 24.4714 95.1499 24.2794 94.2539 24.2794H91.9499V28.5514ZM99.8715 34.3594V23.1594H101.216V34.3594H99.8715ZM103.59 34.3594V23.1594H104.934L110.902 32.1354V23.1594H112.246V34.3594H110.902L104.934 25.3834V34.3594H103.59ZM119.438 34.5514C118.392 34.5514 117.475 34.3114 116.686 33.8314C115.896 33.3407 115.283 32.6634 114.846 31.7994C114.408 30.9247 114.19 29.9167 114.19 28.7754C114.19 27.634 114.408 26.626 114.846 25.7514C115.294 24.8767 115.923 24.194 116.734 23.7034C117.555 23.2127 118.52 22.9674 119.63 22.9674C120.888 22.9674 121.933 23.2714 122.766 23.8794C123.608 24.4874 124.152 25.3247 124.398 26.3914H122.845C122.696 25.7194 122.339 25.186 121.774 24.7914C121.219 24.3967 120.504 24.1994 119.63 24.1994C118.808 24.1994 118.094 24.386 117.486 24.7594C116.878 25.122 116.403 25.6447 116.062 26.3274C115.731 27.01 115.566 27.826 115.566 28.7754C115.566 29.7247 115.731 30.5407 116.062 31.2234C116.392 31.906 116.851 32.434 117.438 32.8074C118.024 33.17 118.707 33.3514 119.486 33.3514C120.68 33.3514 121.582 33.0047 122.19 32.3114C122.798 31.6074 123.144 30.6474 123.23 29.4314H119.998V28.3754H124.606V34.3594H123.374L123.262 32.5194C122.856 33.17 122.36 33.6714 121.774 34.0234C121.187 34.3754 120.408 34.5514 119.438 34.5514Z" fill="#111010"/>
<rect y="173" width="331.188" height="1" fill="#111010"/>
<path d="M17.184 91.3594V80.1594H18.528L24.496 89.1354V80.1594H25.84V91.3594H24.496L18.528 82.3834V91.3594H17.184ZM33.3033 91.5514C32.2046 91.5514 31.2393 91.3114 30.4073 90.8314C29.5859 90.3407 28.9406 89.658 28.4713 88.7834C28.0126 87.9087 27.7833 86.9007 27.7833 85.7594C27.7833 84.618 28.0126 83.6154 28.4713 82.7514C28.9406 81.8767 29.5859 81.194 30.4073 80.7034C31.2393 80.2127 32.2046 79.9674 33.3033 79.9674C34.4126 79.9674 35.3779 80.2127 36.1993 80.7034C37.0313 81.194 37.6766 81.8767 38.1353 82.7514C38.5939 83.6154 38.8233 84.618 38.8233 85.7594C38.8233 86.9007 38.5939 87.9087 38.1353 88.7834C37.6766 89.658 37.0313 90.3407 36.1993 90.8314C35.3779 91.3114 34.4126 91.5514 33.3033 91.5514ZM33.3033 90.3674C34.1246 90.3674 34.8446 90.186 35.4633 89.8234C36.0926 89.45 36.5779 88.922 36.9193 88.2394C37.2713 87.546 37.4473 86.7194 37.4473 85.7594C37.4473 84.7994 37.2713 83.978 36.9193 83.2954C36.5779 82.6127 36.0926 82.09 35.4633 81.7274C34.8446 81.354 34.1246 81.1674 33.3033 81.1674C32.4819 81.1674 31.7566 81.354 31.1273 81.7274C30.5086 82.09 30.0233 82.6127 29.6713 83.2954C29.3299 83.978 29.1593 84.7994 29.1593 85.7594C29.1593 86.7194 29.3299 87.546 29.6713 88.2394C30.0233 88.922 30.5086 89.45 31.1273 89.8234C31.7566 90.186 32.4819 90.3674 33.3033 90.3674ZM44.9965 91.3594V80.1594H46.3405L52.3085 89.1354V80.1594H53.6525V91.3594H52.3085L46.3405 82.3834V91.3594H44.9965ZM56.0278 91.3594V80.1594H62.9558V81.2634H57.3718V85.1674H62.4758V86.2554H57.3718V90.2554H62.9558V91.3594H56.0278ZM65.059 91.3594V80.1594H71.987V81.2634H66.403V85.1674H71.507V86.2554H66.403V90.2554H71.987V91.3594H65.059ZM74.0903 91.3594V80.1594H77.5303C79.5036 80.1594 80.9543 80.6607 81.8823 81.6634C82.8209 82.666 83.2903 84.042 83.2903 85.7914C83.2903 87.5087 82.8209 88.8687 81.8823 89.8714C80.9543 90.8634 79.5036 91.3594 77.5303 91.3594H74.0903ZM75.4343 90.2394H77.4983C78.5863 90.2394 79.4503 90.0634 80.0903 89.7114C80.7409 89.3487 81.2049 88.8367 81.4823 88.1754C81.7596 87.5034 81.8983 86.7087 81.8983 85.7914C81.8983 84.8527 81.7596 84.0474 81.4823 83.3754C81.2049 82.7034 80.7409 82.186 80.0903 81.8234C79.4503 81.4607 78.5863 81.2794 77.4983 81.2794H75.4343V90.2394ZM92.0893 91.3594V81.2634H88.7453V80.1594H96.7773V81.2634H93.4333V91.3594H92.0893ZM102.928 91.5514C101.83 91.5514 100.864 91.3114 100.032 90.8314C99.2109 90.3407 98.5656 89.658 98.0963 88.7834C97.6376 87.9087 97.4083 86.9007 97.4083 85.7594C97.4083 84.618 97.6376 83.6154 98.0963 82.7514C98.5656 81.8767 99.2109 81.194 100.032 80.7034C100.864 80.2127 101.83 79.9674 102.928 79.9674C104.038 79.9674 105.003 80.2127 105.824 80.7034C106.656 81.194 107.302 81.8767 107.76 82.7514C108.219 83.6154 108.448 84.618 108.448 85.7594C108.448 86.9007 108.219 87.9087 107.76 88.7834C107.302 89.658 106.656 90.3407 105.824 90.8314C105.003 91.3114 104.038 91.5514 102.928 91.5514ZM102.928 90.3674C103.75 90.3674 104.47 90.186 105.088 89.8234C105.718 89.45 106.203 88.922 106.544 88.2394C106.896 87.546 107.072 86.7194 107.072 85.7594C107.072 84.7994 106.896 83.978 106.544 83.2954C106.203 82.6127 105.718 82.09 105.088 81.7274C104.47 81.354 103.75 81.1674 102.928 81.1674C102.107 81.1674 101.382 81.354 100.752 81.7274C100.134 82.09 99.6483 82.6127 99.2963 83.2954C98.9549 83.978 98.7843 84.7994 98.7843 85.7594C98.7843 86.7194 98.9549 87.546 99.2963 88.2394C99.6483 88.922 100.134 89.45 100.752 89.8234C101.382 90.186 102.107 90.3674 102.928 90.3674ZM114.622 91.3594V80.1594H121.438V81.2634H115.966V85.1994H120.622V86.2874H115.966V91.3594H114.622ZM123.168 91.3594V80.1594H124.512V91.3594H123.168ZM126.887 91.3594V80.1594H130.503C131.378 80.1594 132.092 80.3034 132.647 80.5914C133.202 80.8794 133.612 81.274 133.879 81.7754C134.146 82.2767 134.279 82.8314 134.279 83.4394C134.279 84.1434 134.087 84.778 133.703 85.3434C133.33 85.9087 132.743 86.3087 131.943 86.5434L134.391 91.3594H132.807L130.535 86.7354H130.439H128.231V91.3594H126.887ZM128.231 85.6794H130.407C131.271 85.6794 131.9 85.4714 132.295 85.0554C132.69 84.6394 132.887 84.106 132.887 83.4554C132.887 82.794 132.69 82.2714 132.295 81.8874C131.911 81.4927 131.276 81.2954 130.391 81.2954H128.231V85.6794ZM136.372 91.3594V80.1594H143.3V81.2634H137.716V85.1674H142.82V86.2554H137.716V90.2554H143.3V91.3594H136.372Z" fill="#111010"/>
</svg>
