<svg width="48" height="12" viewBox="0 0 48 12" fill="none" xmlns="http://www.w3.org/2000/svg">
<path d="M41.9747 11.1498C44.819 11.1498 47.1247 8.84411 47.1247 5.99985C47.1247 3.15558 44.819 0.849854 41.9747 0.849854C39.1304 0.849854 36.8247 3.15558 36.8247 5.99985C36.8247 8.84411 39.1304 11.1498 41.9747 11.1498Z" stroke="black" stroke-width="1.5" stroke-linecap="round" stroke-linejoin="round"/>
<path d="M23.9998 11.1498C26.8441 11.1498 29.1498 8.84411 29.1498 5.99985C29.1498 3.15558 26.8441 0.849854 23.9998 0.849854C21.1556 0.849854 18.8499 3.15558 18.8499 5.99985C18.8499 8.84411 21.1556 11.1498 23.9998 11.1498Z" stroke="black" stroke-width="1.5" stroke-linecap="round" stroke-linejoin="round"/>
<path d="M6.02499 11.1498C8.86926 11.1498 11.175 8.84411 11.175 5.99985C11.175 3.15558 8.86926 0.849854 6.02499 0.849854C3.18073 0.849854 0.875 3.15558 0.875 5.99985C0.875 8.84411 3.18073 11.1498 6.02499 11.1498Z" fill="#FFDB5B" stroke="black" stroke-width="1.5" stroke-linecap="round" stroke-linejoin="round"/>
</svg>
