<svg width="332" height="175" viewBox="0 0 332 175" fill="none" xmlns="http://www.w3.org/2000/svg">
<rect y="0.640625" width="331.188" height="1" fill="#111010"/>
<rect y="57.6406" width="331.188" height="1" fill="#111010"/>
<rect y="114.641" width="331.188" height="1" fill="#111010"/>
<path d="M19.808 149V138.904H16.464V137.8H24.496V138.904H21.152V149H19.808ZM30.647 149.192C29.5483 149.192 28.583 148.952 27.751 148.472C26.9297 147.981 26.2843 147.299 25.815 146.424C25.3563 145.549 25.127 144.541 25.127 143.4C25.127 142.259 25.3563 141.256 25.815 140.392C26.2843 139.517 26.9297 138.835 27.751 138.344C28.583 137.853 29.5483 137.608 30.647 137.608C31.7563 137.608 32.7217 137.853 33.543 138.344C34.375 138.835 35.0203 139.517 35.479 140.392C35.9377 141.256 36.167 142.259 36.167 143.4C36.167 144.541 35.9377 145.549 35.479 146.424C35.0203 147.299 34.375 147.981 33.543 148.472C32.7217 148.952 31.7563 149.192 30.647 149.192ZM30.647 148.008C31.4683 148.008 32.1883 147.827 32.807 147.464C33.4363 147.091 33.9217 146.563 34.263 145.88C34.615 145.187 34.791 144.36 34.791 143.4C34.791 142.44 34.615 141.619 34.263 140.936C33.9217 140.253 33.4363 139.731 32.807 139.368C32.1883 138.995 31.4683 138.808 30.647 138.808C29.8257 138.808 29.1003 138.995 28.471 139.368C27.8523 139.731 27.367 140.253 27.015 140.936C26.6737 141.619 26.503 142.44 26.503 143.4C26.503 144.36 26.6737 145.187 27.015 145.88C27.367 146.563 27.8523 147.091 28.471 147.464C29.1003 147.827 29.8257 148.008 30.647 148.008ZM43.1939 149.192C42.0952 149.192 41.1299 148.952 40.2979 148.472C39.4765 147.981 38.8312 147.299 38.3619 146.424C37.9032 145.549 37.6739 144.541 37.6739 143.4C37.6739 142.259 37.9032 141.256 38.3619 140.392C38.8312 139.517 39.4765 138.835 40.2979 138.344C41.1299 137.853 42.0952 137.608 43.1939 137.608C44.3032 137.608 45.2685 137.853 46.0899 138.344C46.9219 138.835 47.5672 139.517 48.0259 140.392C48.4845 141.256 48.7139 142.259 48.7139 143.4C48.7139 144.541 48.4845 145.549 48.0259 146.424C47.5672 147.299 46.9219 147.981 46.0899 148.472C45.2685 148.952 44.3032 149.192 43.1939 149.192ZM43.1939 148.008C44.0152 148.008 44.7352 147.827 45.3539 147.464C45.9832 147.091 46.4685 146.563 46.8099 145.88C47.1619 145.187 47.3379 144.36 47.3379 143.4C47.3379 142.44 47.1619 141.619 46.8099 140.936C46.4685 140.253 45.9832 139.731 45.3539 139.368C44.7352 138.995 44.0152 138.808 43.1939 138.808C42.3725 138.808 41.6472 138.995 41.0179 139.368C40.3992 139.731 39.9139 140.253 39.5619 140.936C39.2205 141.619 39.0499 142.44 39.0499 143.4C39.0499 144.36 39.2205 145.187 39.5619 145.88C39.9139 146.563 40.3992 147.091 41.0179 147.464C41.6472 147.827 42.3725 148.008 43.1939 148.008ZM50.6528 149V137.8H51.9968V147.928H57.2128V149H50.6528ZM62.1426 149.192C61.3213 149.192 60.6066 149.043 59.9986 148.744C59.3906 148.445 58.9213 148.029 58.5906 147.496C58.26 146.963 58.0946 146.344 58.0946 145.64H59.5026C59.5026 146.077 59.604 146.483 59.8066 146.856C60.0093 147.219 60.3026 147.512 60.6866 147.736C61.0813 147.949 61.5666 148.056 62.1426 148.056C62.9 148.056 63.4866 147.875 63.9026 147.512C64.3186 147.149 64.5266 146.696 64.5266 146.152C64.5266 145.704 64.4306 145.347 64.2386 145.08C64.0466 144.803 63.7853 144.579 63.4546 144.408C63.1346 144.237 62.7613 144.088 62.3346 143.96C61.9186 143.832 61.4813 143.688 61.0226 143.528C60.1586 143.229 59.5186 142.861 59.1026 142.424C58.6866 141.976 58.4786 141.395 58.4786 140.68C58.468 140.083 58.6066 139.555 58.8946 139.096C59.1826 138.627 59.588 138.264 60.1106 138.008C60.644 137.741 61.2733 137.608 61.9986 137.608C62.7133 137.608 63.332 137.741 63.8546 138.008C64.388 138.275 64.7986 138.643 65.0866 139.112C65.3853 139.581 65.54 140.115 65.5506 140.712H64.1426C64.1426 140.403 64.0626 140.099 63.9026 139.8C63.7426 139.491 63.4973 139.24 63.1666 139.048C62.8466 138.856 62.4413 138.76 61.9506 138.76C61.3426 138.749 60.8413 138.904 60.4466 139.224C60.0626 139.544 59.8706 139.987 59.8706 140.552C59.8706 141.032 60.004 141.4 60.2706 141.656C60.548 141.912 60.932 142.125 61.4226 142.296C61.9133 142.456 62.4786 142.643 63.1186 142.856C63.652 143.048 64.132 143.272 64.5586 143.528C64.9853 143.784 65.316 144.115 65.5506 144.52C65.796 144.925 65.9186 145.443 65.9186 146.072C65.9186 146.605 65.78 147.112 65.5026 147.592C65.2253 148.061 64.804 148.445 64.2386 148.744C63.684 149.043 62.9853 149.192 62.1426 149.192ZM71.355 149L75.483 137.8H76.907L81.019 149H79.595L78.571 146.12H73.803L72.763 149H71.355ZM74.203 145.032H78.171L76.187 139.496L74.203 145.032ZM82.684 149V137.8H84.028L89.996 146.776V137.8H91.34V149H89.996L84.028 140.024V149H82.684ZM93.7153 149V137.8H97.1553C99.1286 137.8 100.579 138.301 101.507 139.304C102.446 140.307 102.915 141.683 102.915 143.432C102.915 145.149 102.446 146.509 101.507 147.512C100.579 148.504 99.1286 149 97.1553 149H93.7153ZM95.0593 147.88H97.1233C98.2113 147.88 99.0753 147.704 99.7153 147.352C100.366 146.989 100.83 146.477 101.107 145.816C101.385 145.144 101.523 144.349 101.523 143.432C101.523 142.493 101.385 141.688 101.107 141.016C100.83 140.344 100.366 139.827 99.7153 139.464C99.0753 139.101 98.2113 138.92 97.1233 138.92H95.0593V147.88ZM114.002 149.192C112.904 149.192 111.954 148.952 111.154 148.472C110.365 147.981 109.752 147.304 109.314 146.44C108.877 145.565 108.658 144.552 108.658 143.4C108.658 142.259 108.877 141.256 109.314 140.392C109.752 139.517 110.365 138.835 111.154 138.344C111.954 137.853 112.904 137.608 114.002 137.608C115.282 137.608 116.322 137.917 117.122 138.536C117.933 139.144 118.45 139.997 118.674 141.096H117.186C117.016 140.403 116.664 139.848 116.13 139.432C115.608 139.005 114.898 138.792 114.002 138.792C113.202 138.792 112.504 138.979 111.906 139.352C111.309 139.715 110.845 140.243 110.514 140.936C110.194 141.619 110.034 142.44 110.034 143.4C110.034 144.36 110.194 145.187 110.514 145.88C110.845 146.563 111.309 147.091 111.906 147.464C112.504 147.827 113.202 148.008 114.002 148.008C114.898 148.008 115.608 147.805 116.13 147.4C116.664 146.984 117.016 146.435 117.186 145.752H118.674C118.45 146.829 117.933 147.672 117.122 148.28C116.322 148.888 115.282 149.192 114.002 149.192ZM120.606 149V137.8H121.95V147.928H127.166V149H120.606ZM128.308 149L132.436 137.8H133.86L137.972 149H136.548L135.524 146.12H130.756L129.716 149H128.308ZM131.156 145.032H135.124L133.14 139.496L131.156 145.032ZM141.249 149V144.744L137.601 137.8H139.121L141.921 143.464L144.721 137.8H146.225L142.593 144.744V149H141.249ZM151.965 149V137.8H153.309V149H151.965ZM155.684 149V137.8H157.028L162.996 146.776V137.8H164.34V149H162.996L157.028 140.024V149H155.684ZM171.627 149.192C170.529 149.192 169.579 148.952 168.779 148.472C167.99 147.981 167.377 147.304 166.939 146.44C166.502 145.565 166.283 144.552 166.283 143.4C166.283 142.259 166.502 141.256 166.939 140.392C167.377 139.517 167.99 138.835 168.779 138.344C169.579 137.853 170.529 137.608 171.627 137.608C172.907 137.608 173.947 137.917 174.747 138.536C175.558 139.144 176.075 139.997 176.299 141.096H174.811C174.641 140.403 174.289 139.848 173.755 139.432C173.233 139.005 172.523 138.792 171.627 138.792C170.827 138.792 170.129 138.979 169.531 139.352C168.934 139.715 168.47 140.243 168.139 140.936C167.819 141.619 167.659 142.44 167.659 143.4C167.659 144.36 167.819 145.187 168.139 145.88C168.47 146.563 168.934 147.091 169.531 147.464C170.129 147.827 170.827 148.008 171.627 148.008C172.523 148.008 173.233 147.805 173.755 147.4C174.289 146.984 174.641 146.435 174.811 145.752H176.299C176.075 146.829 175.558 147.672 174.747 148.28C173.947 148.888 172.907 149.192 171.627 149.192ZM178.231 149V137.8H179.575V147.928H184.791V149H178.231ZM190.201 149.192C189.433 149.192 188.734 149.043 188.105 148.744C187.486 148.435 186.99 147.96 186.617 147.32C186.243 146.68 186.057 145.864 186.057 144.872V137.8H187.401V144.888C187.401 145.976 187.662 146.765 188.185 147.256C188.707 147.747 189.39 147.992 190.233 147.992C191.075 147.992 191.753 147.747 192.265 147.256C192.777 146.765 193.033 145.976 193.033 144.888V137.8H194.377V144.872C194.377 145.864 194.19 146.68 193.817 147.32C193.443 147.96 192.942 148.435 192.313 148.744C191.683 149.043 190.979 149.192 190.201 149.192ZM196.653 149V137.8H200.093C202.066 137.8 203.517 138.301 204.445 139.304C205.383 140.307 205.853 141.683 205.853 143.432C205.853 145.149 205.383 146.509 204.445 147.512C203.517 148.504 202.066 149 200.093 149H196.653ZM197.997 147.88H200.061C201.149 147.88 202.013 147.704 202.653 147.352C203.303 146.989 203.767 146.477 204.045 145.816C204.322 145.144 204.461 144.349 204.461 143.432C204.461 142.493 204.322 141.688 204.045 141.016C203.767 140.344 203.303 139.827 202.653 139.464C202.013 139.101 201.149 138.92 200.061 138.92H197.997V147.88ZM207.793 149V137.8H214.721V138.904H209.137V142.808H214.241V143.896H209.137V147.896H214.721V149H207.793ZM216.825 149V137.8H220.265C222.238 137.8 223.689 138.301 224.617 139.304C225.555 140.307 226.025 141.683 226.025 143.432C226.025 145.149 225.555 146.509 224.617 147.512C223.689 148.504 222.238 149 220.265 149H216.825ZM218.169 147.88H220.233C221.321 147.88 222.185 147.704 222.825 147.352C223.475 146.989 223.939 146.477 224.217 145.816C224.494 145.144 224.633 144.349 224.633 143.432C224.633 142.493 224.494 141.688 224.217 141.016C223.939 140.344 223.475 139.827 222.825 139.464C222.185 139.101 221.321 138.92 220.233 138.92H218.169V147.88Z" fill="#111010"/>
<path d="M17.184 35V23.8H24V24.904H18.528V28.84H23.184V29.928H18.528V35H17.184ZM25.7309 35V23.8H29.3469C30.2215 23.8 30.9362 23.944 31.4909 24.232C32.0455 24.52 32.4562 24.9147 32.7229 25.416C32.9895 25.9173 33.1229 26.472 33.1229 27.08C33.1229 27.784 32.9309 28.4187 32.5469 28.984C32.1735 29.5493 31.5869 29.9493 30.7869 30.184L33.2349 35H31.6509L29.3789 30.376H29.2829H27.0749V35H25.7309ZM27.0749 29.32H29.2509C30.1149 29.32 30.7442 29.112 31.1389 28.696C31.5335 28.28 31.7309 27.7467 31.7309 27.096C31.7309 26.4347 31.5335 25.912 31.1389 25.528C30.7549 25.1333 30.1202 24.936 29.2349 24.936H27.0749V29.32ZM35.2153 35V23.8H42.1433V24.904H36.5593V28.808H41.6633V29.896H36.5593V33.896H42.1433V35H35.2153ZM44.2465 35V23.8H51.1745V24.904H45.5905V28.808H50.6945V29.896H45.5905V33.896H51.1745V35H44.2465ZM61.0801 35.192C60.2588 35.192 59.5441 35.0427 58.9361 34.744C58.3281 34.4453 57.8588 34.0293 57.5281 33.496C57.1975 32.9627 57.0321 32.344 57.0321 31.64H58.4401C58.4401 32.0773 58.5415 32.4827 58.7441 32.856C58.9468 33.2187 59.2401 33.512 59.6241 33.736C60.0188 33.9493 60.5041 34.056 61.0801 34.056C61.8375 34.056 62.4241 33.8747 62.8401 33.512C63.2561 33.1493 63.4641 32.696 63.4641 32.152C63.4641 31.704 63.3681 31.3467 63.1761 31.08C62.9841 30.8027 62.7228 30.5787 62.3921 30.408C62.0721 30.2373 61.6988 30.088 61.2721 29.96C60.8561 29.832 60.4188 29.688 59.9601 29.528C59.0961 29.2293 58.4561 28.8613 58.0401 28.424C57.6241 27.976 57.4161 27.3947 57.4161 26.68C57.4055 26.0827 57.5441 25.5547 57.8321 25.096C58.1201 24.6267 58.5255 24.264 59.0481 24.008C59.5815 23.7413 60.2108 23.608 60.9361 23.608C61.6508 23.608 62.2695 23.7413 62.7921 24.008C63.3255 24.2747 63.7361 24.6427 64.0241 25.112C64.3228 25.5813 64.4775 26.1147 64.4881 26.712H63.0801C63.0801 26.4027 63.0001 26.0987 62.8401 25.8C62.6801 25.4907 62.4348 25.24 62.1041 25.048C61.7841 24.856 61.3788 24.76 60.8881 24.76C60.2801 24.7493 59.7788 24.904 59.3841 25.224C59.0001 25.544 58.8081 25.9867 58.8081 26.552C58.8081 27.032 58.9415 27.4 59.2081 27.656C59.4855 27.912 59.8695 28.1253 60.3601 28.296C60.8508 28.456 61.4161 28.6427 62.0561 28.856C62.5895 29.048 63.0695 29.272 63.4961 29.528C63.9228 29.784 64.2535 30.1147 64.4881 30.52C64.7335 30.9253 64.8561 31.4427 64.8561 32.072C64.8561 32.6053 64.7175 33.112 64.4401 33.592C64.1628 34.0613 63.7415 34.4453 63.1761 34.744C62.6215 35.0427 61.9228 35.192 61.0801 35.192ZM66.7621 35V23.8H68.1061V28.744H73.9141V23.8H75.2581V35H73.9141V29.848H68.1061V35H66.7621ZM77.6215 35V23.8H78.9655V35H77.6215ZM81.3403 35V23.8H85.0203C85.8949 23.8 86.6149 23.944 87.1803 24.232C87.7456 24.52 88.1616 24.9093 88.4283 25.4C88.7056 25.8907 88.8443 26.4453 88.8443 27.064C88.8443 27.672 88.7109 28.2213 88.4443 28.712C88.1776 29.2027 87.7616 29.5973 87.1963 29.896C86.6309 30.184 85.9056 30.328 85.0203 30.328H82.6843V35H81.3403ZM82.6843 29.192H84.9883C85.8843 29.192 86.5189 29.0053 86.8923 28.632C87.2763 28.248 87.4683 27.7253 87.4683 27.064C87.4683 26.392 87.2763 25.8693 86.8923 25.496C86.5189 25.112 85.8843 24.92 84.9883 24.92H82.6843V29.192ZM90.6059 35V23.8H94.2859C95.1605 23.8 95.8805 23.944 96.4459 24.232C97.0112 24.52 97.4272 24.9093 97.6939 25.4C97.9712 25.8907 98.1099 26.4453 98.1099 27.064C98.1099 27.672 97.9765 28.2213 97.7099 28.712C97.4432 29.2027 97.0272 29.5973 96.4619 29.896C95.8965 30.184 95.1712 30.328 94.2859 30.328H91.9499V35H90.6059ZM91.9499 29.192H94.2539C95.1499 29.192 95.7845 29.0053 96.1579 28.632C96.5419 28.248 96.7339 27.7253 96.7339 27.064C96.7339 26.392 96.5419 25.8693 96.1579 25.496C95.7845 25.112 95.1499 24.92 94.2539 24.92H91.9499V29.192ZM99.8715 35V23.8H101.216V35H99.8715ZM103.59 35V23.8H104.934L110.902 32.776V23.8H112.246V35H110.902L104.934 26.024V35H103.59ZM119.438 35.192C118.392 35.192 117.475 34.952 116.686 34.472C115.896 33.9813 115.283 33.304 114.846 32.44C114.408 31.5653 114.19 30.5573 114.19 29.416C114.19 28.2747 114.408 27.2667 114.846 26.392C115.294 25.5173 115.923 24.8347 116.734 24.344C117.555 23.8533 118.52 23.608 119.63 23.608C120.888 23.608 121.933 23.912 122.766 24.52C123.608 25.128 124.152 25.9653 124.398 27.032H122.845C122.696 26.36 122.339 25.8267 121.774 25.432C121.219 25.0373 120.504 24.84 119.63 24.84C118.808 24.84 118.094 25.0267 117.486 25.4C116.878 25.7627 116.403 26.2853 116.062 26.968C115.731 27.6507 115.566 28.4667 115.566 29.416C115.566 30.3653 115.731 31.1813 116.062 31.864C116.392 32.5467 116.851 33.0747 117.438 33.448C118.024 33.8107 118.707 33.992 119.486 33.992C120.68 33.992 121.582 33.6453 122.19 32.952C122.798 32.248 123.144 31.288 123.23 30.072H119.998V29.016H124.606V35H123.374L123.262 33.16C122.856 33.8107 122.36 34.312 121.774 34.664C121.187 35.016 120.408 35.192 119.438 35.192Z" fill="#111010"/>
<rect y="173.641" width="331.188" height="1" fill="#111010"/>
<path d="M17.184 92V80.8H18.528L24.496 89.776V80.8H25.84V92H24.496L18.528 83.024V92H17.184ZM33.3033 92.192C32.2046 92.192 31.2393 91.952 30.4073 91.472C29.5859 90.9813 28.9406 90.2987 28.4713 89.424C28.0126 88.5493 27.7833 87.5413 27.7833 86.4C27.7833 85.2587 28.0126 84.256 28.4713 83.392C28.9406 82.5173 29.5859 81.8347 30.4073 81.344C31.2393 80.8533 32.2046 80.608 33.3033 80.608C34.4126 80.608 35.3779 80.8533 36.1993 81.344C37.0313 81.8347 37.6766 82.5173 38.1353 83.392C38.5939 84.256 38.8233 85.2587 38.8233 86.4C38.8233 87.5413 38.5939 88.5493 38.1353 89.424C37.6766 90.2987 37.0313 90.9813 36.1993 91.472C35.3779 91.952 34.4126 92.192 33.3033 92.192ZM33.3033 91.008C34.1246 91.008 34.8446 90.8267 35.4633 90.464C36.0926 90.0907 36.5779 89.5627 36.9193 88.88C37.2713 88.1867 37.4473 87.36 37.4473 86.4C37.4473 85.44 37.2713 84.6187 36.9193 83.936C36.5779 83.2533 36.0926 82.7307 35.4633 82.368C34.8446 81.9947 34.1246 81.808 33.3033 81.808C32.4819 81.808 31.7566 81.9947 31.1273 82.368C30.5086 82.7307 30.0233 83.2533 29.6713 83.936C29.3299 84.6187 29.1593 85.44 29.1593 86.4C29.1593 87.36 29.3299 88.1867 29.6713 88.88C30.0233 89.5627 30.5086 90.0907 31.1273 90.464C31.7566 90.8267 32.4819 91.008 33.3033 91.008ZM44.9965 92V80.8H46.3405L52.3085 89.776V80.8H53.6525V92H52.3085L46.3405 83.024V92H44.9965ZM56.0278 92V80.8H62.9558V81.904H57.3718V85.808H62.4758V86.896H57.3718V90.896H62.9558V92H56.0278ZM65.059 92V80.8H71.987V81.904H66.403V85.808H71.507V86.896H66.403V90.896H71.987V92H65.059ZM74.0903 92V80.8H77.5303C79.5036 80.8 80.9543 81.3013 81.8823 82.304C82.8209 83.3067 83.2903 84.6827 83.2903 86.432C83.2903 88.1493 82.8209 89.5093 81.8823 90.512C80.9543 91.504 79.5036 92 77.5303 92H74.0903ZM75.4343 90.88H77.4983C78.5863 90.88 79.4503 90.704 80.0903 90.352C80.7409 89.9893 81.2049 89.4773 81.4823 88.816C81.7596 88.144 81.8983 87.3493 81.8983 86.432C81.8983 85.4933 81.7596 84.688 81.4823 84.016C81.2049 83.344 80.7409 82.8267 80.0903 82.464C79.4503 82.1013 78.5863 81.92 77.4983 81.92H75.4343V90.88ZM92.0893 92V81.904H88.7453V80.8H96.7773V81.904H93.4333V92H92.0893ZM102.928 92.192C101.83 92.192 100.864 91.952 100.032 91.472C99.2109 90.9813 98.5656 90.2987 98.0963 89.424C97.6376 88.5493 97.4083 87.5413 97.4083 86.4C97.4083 85.2587 97.6376 84.256 98.0963 83.392C98.5656 82.5173 99.2109 81.8347 100.032 81.344C100.864 80.8533 101.83 80.608 102.928 80.608C104.038 80.608 105.003 80.8533 105.824 81.344C106.656 81.8347 107.302 82.5173 107.76 83.392C108.219 84.256 108.448 85.2587 108.448 86.4C108.448 87.5413 108.219 88.5493 107.76 89.424C107.302 90.2987 106.656 90.9813 105.824 91.472C105.003 91.952 104.038 92.192 102.928 92.192ZM102.928 91.008C103.75 91.008 104.47 90.8267 105.088 90.464C105.718 90.0907 106.203 89.5627 106.544 88.88C106.896 88.1867 107.072 87.36 107.072 86.4C107.072 85.44 106.896 84.6187 106.544 83.936C106.203 83.2533 105.718 82.7307 105.088 82.368C104.47 81.9947 103.75 81.808 102.928 81.808C102.107 81.808 101.382 81.9947 100.752 82.368C100.134 82.7307 99.6483 83.2533 99.2963 83.936C98.9549 84.6187 98.7843 85.44 98.7843 86.4C98.7843 87.36 98.9549 88.1867 99.2963 88.88C99.6483 89.5627 100.134 90.0907 100.752 90.464C101.382 90.8267 102.107 91.008 102.928 91.008ZM114.622 92V80.8H121.438V81.904H115.966V85.84H120.622V86.928H115.966V92H114.622ZM123.168 92V80.8H124.512V92H123.168ZM126.887 92V80.8H130.503C131.378 80.8 132.092 80.944 132.647 81.232C133.202 81.52 133.612 81.9147 133.879 82.416C134.146 82.9173 134.279 83.472 134.279 84.08C134.279 84.784 134.087 85.4187 133.703 85.984C133.33 86.5493 132.743 86.9493 131.943 87.184L134.391 92H132.807L130.535 87.376H130.439H128.231V92H126.887ZM128.231 86.32H130.407C131.271 86.32 131.9 86.112 132.295 85.696C132.69 85.28 132.887 84.7467 132.887 84.096C132.887 83.4347 132.69 82.912 132.295 82.528C131.911 82.1333 131.276 81.936 130.391 81.936H128.231V86.32ZM136.372 92V80.8H143.3V81.904H137.716V85.808H142.82V86.896H137.716V90.896H143.3V92H136.372Z" fill="#111010"/>
</svg>
