<svg width="76" height="76" viewBox="0 0 76 76" fill="none" xmlns="http://www.w3.org/2000/svg">
<path d="M60.768 44.5232C64.3707 44.5232 67.2913 41.6026 67.2913 37.9999C67.2913 34.3972 64.3707 31.4766 60.768 31.4766C57.1652 31.4766 54.2446 34.3972 54.2446 37.9999C54.2446 41.6026 57.1652 44.5232 60.768 44.5232Z" stroke="black" stroke-width="1.5" stroke-linecap="round" stroke-linejoin="round"/>
<path d="M37.9999 44.5232C41.6026 44.5232 44.5232 41.6026 44.5232 37.9999C44.5232 34.3972 41.6026 31.4766 37.9999 31.4766C34.3972 31.4766 31.4766 34.3972 31.4766 37.9999C31.4766 41.6026 34.3972 44.5232 37.9999 44.5232Z" stroke="black" stroke-width="1.5" stroke-linecap="round" stroke-linejoin="round"/>
<path d="M15.2318 44.5232C18.8346 44.5232 21.7551 41.6026 21.7551 37.9999C21.7551 34.3972 18.8346 31.4766 15.2318 31.4766C11.6291 31.4766 8.7085 34.3972 8.7085 37.9999C8.7085 41.6026 11.6291 44.5232 15.2318 44.5232Z" fill="#FFDB5B" stroke="black" stroke-width="1.5" stroke-linecap="round" stroke-linejoin="round"/>
</svg>
