<svg width="1440" height="133" viewBox="0 0 1440 133" fill="none" xmlns="http://www.w3.org/2000/svg">
<g clip-path="url(#clip0_102_153)">
<mask id="mask0_102_153" style="mask-type:alpha" maskUnits="userSpaceOnUse" x="303" y="4" width="100" height="128">
<path fill-rule="evenodd" clip-rule="evenodd" d="M361.334 4H344.668V42.2506L323.537 15.203L311.751 30.2878L332.88 57.3332H303V78.6663H332.883L311.753 105.713L323.538 120.798L344.668 93.7523V132H361.334V93.7539L382.462 120.798L394.247 105.713L373.117 78.6663H403V57.3332H373.12L394.249 30.2878L382.464 15.203L361.334 42.249V4Z" fill="white"/>
</mask>
<g mask="url(#mask0_102_153)">
<path fill-rule="evenodd" clip-rule="evenodd" d="M361.334 4H344.668V42.2506L323.537 15.203L311.751 30.2878L332.88 57.3332H303V78.6663H332.883L311.753 105.713L323.538 120.798L344.668 93.7523V132H361.334V93.7539L382.462 120.798L394.247 105.713L373.117 78.6663H403V57.3332H373.12L394.249 30.2878L382.464 15.203L361.334 42.249V4Z" fill="#FF9B3D"/>
<path d="M344.668 3.99994V1.3877H342.627V3.99994H344.668ZM361.334 3.99994H363.375V1.3877H361.334V3.99994ZM344.668 42.2505L343.225 44.0976L346.708 48.5573V42.2505H344.668ZM323.537 15.2029L324.98 13.3558L323.537 11.5087L322.093 13.3558L323.537 15.2029ZM311.751 30.2877L310.308 28.4407L308.865 30.2877L310.308 32.1351L311.751 30.2877ZM332.88 57.3331V59.9453H337.807L334.324 55.486L332.88 57.3331ZM303 57.3331V54.7209H300.959V57.3331H303ZM303 78.6663H300.959V81.2785H303V78.6663ZM332.883 78.6663L334.326 80.5134L337.81 76.054H332.883V78.6663ZM311.753 105.713L310.31 103.866L308.867 105.713L310.31 107.56L311.753 105.713ZM323.538 120.798L322.095 122.645L323.538 124.492L324.981 122.645L323.538 120.798ZM344.668 93.7522H346.708V87.4455L343.225 91.9049L344.668 93.7522ZM344.668 132H342.627V134.612H344.668V132ZM361.334 132V134.612H363.375V132H361.334ZM361.334 93.7538L362.777 91.9067L359.293 87.4473V93.7538H361.334ZM382.462 120.798L381.019 122.645L382.462 124.492L383.905 122.645L382.462 120.798ZM394.247 105.713L395.69 107.56L397.133 105.713L395.69 103.866L394.247 105.713ZM373.117 78.6663V76.054H368.19L371.674 80.5134L373.117 78.6663ZM403 78.6663V81.2785H405.041V78.6663H403ZM403 57.3331H405.041V54.7209H403V57.3331ZM373.12 57.3331L371.677 55.486L368.193 59.9453H373.12V57.3331ZM394.249 30.2877L395.692 32.1351L397.135 30.2877L395.692 28.4407L394.249 30.2877ZM382.464 15.2029L383.907 13.3558L382.464 11.5087L381.021 13.3558L382.464 15.2029ZM361.334 42.249H359.293V48.5554L362.777 44.0961L361.334 42.249ZM344.668 6.61219H361.334V1.3877H344.668V6.61219ZM346.708 42.2505V3.99994H342.627V42.2505H346.708ZM322.093 17.0501L343.225 44.0976L346.111 40.4034L324.98 13.3558L322.093 17.0501ZM313.194 32.1351L324.98 17.0501L322.093 13.3558L310.308 28.4407L313.194 32.1351ZM334.324 55.486L313.194 28.4407L310.308 32.1351L331.437 59.1802L334.324 55.486ZM303 59.9453H332.88V54.7209H303V59.9453ZM305.041 78.6663V57.3331H300.959V78.6663H305.041ZM332.883 76.054H303V81.2785H332.883V76.054ZM313.196 107.56L334.326 80.5134L331.44 76.8191L310.31 103.866L313.196 107.56ZM324.981 118.95L313.196 103.866L310.31 107.56L322.095 122.645L324.981 118.95ZM343.225 91.9049L322.095 118.95L324.981 122.645L346.111 95.5993L343.225 91.9049ZM346.708 132V93.7522H342.627V132H346.708ZM361.334 129.388H344.668V134.612H361.334V129.388ZM359.293 93.7538V132H363.375V93.7538H359.293ZM383.905 118.95L362.777 91.9067L359.891 95.6009L381.019 122.645L383.905 118.95ZM392.804 103.866L381.019 118.95L383.905 122.645L395.69 107.56L392.804 103.866ZM371.674 80.5134L392.804 107.56L395.69 103.866L374.56 76.8191L371.674 80.5134ZM403 76.054H373.117V81.2785H403V76.054ZM400.959 57.3331V78.6663H405.041V57.3331H400.959ZM373.12 59.9453H403V54.7209H373.12V59.9453ZM392.806 28.4407L371.677 55.486L374.563 59.1802L395.692 32.1351L392.806 28.4407ZM381.021 17.0501L392.806 32.1351L395.692 28.4407L383.907 13.3558L381.021 17.0501ZM362.777 44.0961L383.907 17.0501L381.021 13.3558L359.891 40.4018L362.777 44.0961ZM359.293 3.99994V42.249H363.375V3.99994H359.293Z" fill="#111010"/>
</g>
</g>
<g clip-path="url(#clip1_102_153)">
<mask id="mask1_102_153" style="mask-type:alpha" maskUnits="userSpaceOnUse" x="899" y="4" width="100" height="128">
<path fill-rule="evenodd" clip-rule="evenodd" d="M957.334 4H940.668V42.2506L919.537 15.203L907.751 30.2878L928.88 57.3332H899V78.6663H928.883L907.753 105.713L919.538 120.798L940.668 93.7523V132H957.334V93.7539L978.462 120.798L990.247 105.713L969.117 78.6663H999V57.3332H969.12L990.249 30.2878L978.464 15.203L957.334 42.249V4Z" fill="white"/>
</mask>
<g mask="url(#mask1_102_153)">
<path fill-rule="evenodd" clip-rule="evenodd" d="M957.334 4H940.668V42.2506L919.537 15.203L907.751 30.2878L928.88 57.3332H899V78.6663H928.883L907.753 105.713L919.538 120.798L940.668 93.7523V132H957.334V93.7539L978.462 120.798L990.247 105.713L969.117 78.6663H999V57.3332H969.12L990.249 30.2878L978.464 15.203L957.334 42.249V4Z" fill="#FF9B3D"/>
<path d="M940.668 3.99994V1.3877H938.627V3.99994H940.668ZM957.334 3.99994H959.375V1.3877H957.334V3.99994ZM940.668 42.2505L939.225 44.0976L942.708 48.5573V42.2505H940.668ZM919.537 15.2029L920.98 13.3558L919.537 11.5087L918.093 13.3558L919.537 15.2029ZM907.751 30.2877L906.308 28.4407L904.865 30.2877L906.308 32.1351L907.751 30.2877ZM928.88 57.3331V59.9453H933.807L930.324 55.486L928.88 57.3331ZM899 57.3331V54.7209H896.959V57.3331H899ZM899 78.6663H896.959V81.2785H899V78.6663ZM928.883 78.6663L930.326 80.5134L933.81 76.054H928.883V78.6663ZM907.753 105.713L906.31 103.866L904.867 105.713L906.31 107.56L907.753 105.713ZM919.538 120.798L918.095 122.645L919.538 124.492L920.981 122.645L919.538 120.798ZM940.668 93.7522H942.708V87.4455L939.225 91.9049L940.668 93.7522ZM940.668 132H938.627V134.612H940.668V132ZM957.334 132V134.612H959.375V132H957.334ZM957.334 93.7538L958.777 91.9067L955.293 87.4473V93.7538H957.334ZM978.462 120.798L977.019 122.645L978.462 124.492L979.905 122.645L978.462 120.798ZM990.247 105.713L991.69 107.56L993.133 105.713L991.69 103.866L990.247 105.713ZM969.117 78.6663V76.054H964.19L967.674 80.5134L969.117 78.6663ZM999 78.6663V81.2785H1001.04V78.6663H999ZM999 57.3331H1001.04V54.7209H999V57.3331ZM969.12 57.3331L967.677 55.486L964.193 59.9453H969.12V57.3331ZM990.249 30.2877L991.692 32.1351L993.135 30.2877L991.692 28.4407L990.249 30.2877ZM978.464 15.2029L979.907 13.3558L978.464 11.5087L977.021 13.3558L978.464 15.2029ZM957.334 42.249H955.293V48.5554L958.777 44.0961L957.334 42.249ZM940.668 6.61219H957.334V1.3877H940.668V6.61219ZM942.708 42.2505V3.99994H938.627V42.2505H942.708ZM918.093 17.0501L939.225 44.0976L942.111 40.4034L920.98 13.3558L918.093 17.0501ZM909.194 32.1351L920.98 17.0501L918.093 13.3558L906.308 28.4407L909.194 32.1351ZM930.324 55.486L909.194 28.4407L906.308 32.1351L927.437 59.1802L930.324 55.486ZM899 59.9453H928.88V54.7209H899V59.9453ZM901.041 78.6663V57.3331H896.959V78.6663H901.041ZM928.883 76.054H899V81.2785H928.883V76.054ZM909.196 107.56L930.326 80.5134L927.44 76.8191L906.31 103.866L909.196 107.56ZM920.981 118.95L909.196 103.866L906.31 107.56L918.095 122.645L920.981 118.95ZM939.225 91.9049L918.095 118.95L920.981 122.645L942.111 95.5993L939.225 91.9049ZM942.708 132V93.7522H938.627V132H942.708ZM957.334 129.388H940.668V134.612H957.334V129.388ZM955.293 93.7538V132H959.375V93.7538H955.293ZM979.905 118.95L958.777 91.9067L955.891 95.6009L977.019 122.645L979.905 118.95ZM988.804 103.866L977.019 118.95L979.905 122.645L991.69 107.56L988.804 103.866ZM967.674 80.5134L988.804 107.56L991.69 103.866L970.56 76.8191L967.674 80.5134ZM999 76.054H969.117V81.2785H999V76.054ZM996.959 57.3331V78.6663H1001.04V57.3331H996.959ZM969.12 59.9453H999V54.7209H969.12V59.9453ZM988.806 28.4407L967.677 55.486L970.563 59.1802L991.692 32.1351L988.806 28.4407ZM977.021 17.0501L988.806 32.1351L991.692 28.4407L979.907 13.3558L977.021 17.0501ZM958.777 44.0961L979.907 17.0501L977.021 13.3558L955.891 40.4018L958.777 44.0961ZM955.293 3.99994V42.249H959.375V3.99994H955.293Z" fill="#111010"/>
</g>
</g>
<path d="M-57.52 92L-91.184 2.39999H-79.536L-51.248 80.608L-22.704 2.39999H-11.312L-44.976 92H-57.52ZM-17.035 92L15.989 2.39999H27.381L60.277 92H48.885L40.693 68.96H2.549L-5.771 92H-17.035ZM5.749 60.256H37.493L21.621 15.968L5.749 60.256ZM102.141 93.536C95.5703 93.536 89.853 92.3413 84.989 89.952C80.125 87.5627 76.3703 84.2347 73.725 79.968C71.0797 75.7013 69.757 70.752 69.757 65.12H81.021C81.021 68.6187 81.8317 71.8613 83.453 74.848C85.0743 77.7493 87.421 80.096 90.493 81.888C93.6503 83.5947 97.533 84.448 102.141 84.448C108.2 84.448 112.893 82.9973 116.221 80.096C119.549 77.1947 121.213 73.568 121.213 69.216C121.213 65.632 120.445 62.7733 118.909 60.64C117.373 58.4213 115.282 56.6293 112.637 55.264C110.077 53.8987 107.09 52.704 103.677 51.68C100.349 50.656 96.8503 49.504 93.181 48.224C86.269 45.8347 81.149 42.8907 77.821 39.392C74.493 35.808 72.829 31.1573 72.829 25.44C72.7437 20.6613 73.853 16.4373 76.157 12.768C78.461 9.01333 81.7037 6.11199 85.885 4.064C90.1517 1.93066 95.1863 0.863998 100.989 0.863998C106.706 0.863998 111.656 1.93066 115.837 4.064C120.104 6.19733 123.389 9.14133 125.693 12.896C128.082 16.6507 129.32 20.9173 129.405 25.696H118.141C118.141 23.2213 117.501 20.7893 116.221 18.4C114.941 15.9253 112.978 13.92 110.333 12.384C107.773 10.848 104.53 10.08 100.605 10.08C95.741 9.99466 91.7303 11.232 88.573 13.792C85.501 16.352 83.965 19.8933 83.965 24.416C83.965 28.256 85.0317 31.2 87.165 33.248C89.3837 35.296 92.4557 37.0027 96.381 38.368C100.306 39.648 104.829 41.1413 109.949 42.848C114.216 44.384 118.056 46.176 121.469 48.224C124.882 50.272 127.528 52.9173 129.405 56.16C131.368 59.4027 132.349 63.5413 132.349 68.576C132.349 72.8427 131.24 76.896 129.021 80.736C126.802 84.4907 123.432 87.5627 118.909 89.952C114.472 92.3413 108.882 93.536 102.141 93.536ZM147.597 92V2.39999H203.021V11.232H158.349V42.464H199.181V51.168H158.349V83.168H203.021V92H147.597ZM248.391 93.536C241.82 93.536 236.103 92.3413 231.239 89.952C226.375 87.5627 222.62 84.2347 219.975 79.968C217.33 75.7013 216.007 70.752 216.007 65.12H227.271C227.271 68.6187 228.082 71.8613 229.703 74.848C231.324 77.7493 233.671 80.096 236.743 81.888C239.9 83.5947 243.783 84.448 248.391 84.448C254.45 84.448 259.143 82.9973 262.471 80.096C265.799 77.1947 267.463 73.568 267.463 69.216C267.463 65.632 266.695 62.7733 265.159 60.64C263.623 58.4213 261.532 56.6293 258.887 55.264C256.327 53.8987 253.34 52.704 249.927 51.68C246.599 50.656 243.1 49.504 239.431 48.224C232.519 45.8347 227.399 42.8907 224.071 39.392C220.743 35.808 219.079 31.1573 219.079 25.44C218.994 20.6613 220.103 16.4373 222.407 12.768C224.711 9.01333 227.954 6.11199 232.135 4.064C236.402 1.93066 241.436 0.863998 247.239 0.863998C252.956 0.863998 257.906 1.93066 262.087 4.064C266.354 6.19733 269.639 9.14133 271.943 12.896C274.332 16.6507 275.57 20.9173 275.655 25.696H264.391C264.391 23.2213 263.751 20.7893 262.471 18.4C261.191 15.9253 259.228 13.92 256.583 12.384C254.023 10.848 250.78 10.08 246.855 10.08C241.991 9.99466 237.98 11.232 234.823 13.792C231.751 16.352 230.215 19.8933 230.215 24.416C230.215 28.256 231.282 31.2 233.415 33.248C235.634 35.296 238.706 37.0027 242.631 38.368C246.556 39.648 251.079 41.1413 256.199 42.848C260.466 44.384 264.306 46.176 267.719 48.224C271.132 50.272 273.778 52.9173 275.655 56.16C277.618 59.4027 278.599 63.5413 278.599 68.576C278.599 72.8427 277.49 76.896 275.271 80.736C273.052 84.4907 269.682 87.5627 265.159 89.952C260.722 92.3413 255.132 93.536 248.391 93.536Z" fill="#111010"/>
<path d="M455.398 91V2.09999H486.64C492.905 2.09999 498.07 3.11599 502.134 5.14799C506.283 7.09533 509.373 9.80466 511.405 13.276C513.437 16.6627 514.453 20.4727 514.453 24.706C514.453 30.4633 512.887 34.993 509.754 38.295C506.706 41.597 503.023 43.883 498.705 45.153C502.007 45.7457 505.013 47.058 507.722 49.09C510.431 51.122 512.548 53.662 514.072 56.71C515.681 59.758 516.485 63.1023 516.485 66.743C516.485 71.2303 515.384 75.3367 513.183 79.062C510.982 82.7027 507.722 85.6237 503.404 87.825C499.086 89.9417 493.837 91 487.656 91H455.398ZM466.066 40.962H485.878C491.551 40.962 495.911 39.6497 498.959 37.025C502.007 34.3157 503.531 30.5903 503.531 25.849C503.531 21.3617 502.007 17.7633 498.959 15.054C495.996 12.3447 491.508 10.99 485.497 10.99H466.066V40.962ZM466.066 82.11H486.513C492.609 82.11 497.308 80.713 500.61 77.919C503.912 75.0403 505.563 71.061 505.563 65.981C505.563 60.9857 503.827 57.0063 500.356 54.043C496.885 50.995 492.186 49.471 486.259 49.471H466.066V82.11ZM572.182 92.524C563.462 92.524 555.799 90.619 549.195 86.809C542.676 82.9143 537.554 77.4957 533.828 70.553C530.188 63.6103 528.367 55.6093 528.367 46.55C528.367 37.4907 530.188 29.532 533.828 22.674C537.554 15.7313 542.676 10.3127 549.195 6.418C555.799 2.52333 563.462 0.575998 572.182 0.575998C580.988 0.575998 588.65 2.52333 595.169 6.418C601.773 10.3127 606.896 15.7313 610.536 22.674C614.177 29.532 615.997 37.4907 615.997 46.55C615.997 55.6093 614.177 63.6103 610.536 70.553C606.896 77.4957 601.773 82.9143 595.169 86.809C588.65 90.619 580.988 92.524 572.182 92.524ZM572.182 83.126C578.702 83.126 584.417 81.6867 589.327 78.808C594.323 75.8447 598.175 71.6537 600.884 66.235C603.678 60.7317 605.075 54.17 605.075 46.55C605.075 38.93 603.678 32.4107 600.884 26.992C598.175 21.5733 594.323 17.4247 589.327 14.546C584.417 11.5827 578.702 10.101 572.182 10.101C565.663 10.101 559.906 11.5827 554.91 14.546C550 17.4247 546.147 21.5733 543.353 26.992C540.644 32.4107 539.289 38.93 539.289 46.55C539.289 54.17 540.644 60.7317 543.353 66.235C546.147 71.6537 550 75.8447 554.91 78.808C559.906 81.6867 565.663 83.126 572.182 83.126ZM646.451 91.127L622.067 2.09999H633.497L652.674 78.427L674.518 2.09999H686.329L707.538 78.427L726.969 2.09999H738.399L713.507 91H701.315L680.106 17.594L658.389 91L646.451 91.127ZM750.946 91V2.09999H761.614V82.491H803.016V91H750.946ZM842.147 92.524C835.627 92.524 829.955 91.3387 825.129 88.968C820.303 86.5973 816.577 83.2953 813.953 79.062C811.328 74.8287 810.016 69.918 810.016 64.33H821.192C821.192 67.8013 821.996 71.0187 823.605 73.982C825.213 76.8607 827.542 79.189 830.59 80.967C833.722 82.6603 837.575 83.507 842.147 83.507C848.158 83.507 852.815 82.0677 856.117 79.189C859.419 76.3103 861.07 72.712 861.07 68.394C861.07 64.838 860.308 62.0017 858.784 59.885C857.26 57.6837 855.185 55.9057 852.561 54.551C850.021 53.1963 847.057 52.011 843.671 50.995C840.369 49.979 836.897 48.836 833.257 47.566C826.399 45.1953 821.319 42.2743 818.017 38.803C814.715 35.247 813.064 30.6327 813.064 24.96C812.979 20.2187 814.08 16.0277 816.366 12.387C818.652 8.66166 821.869 5.78299 826.018 3.751C830.251 1.63433 835.246 0.575998 841.004 0.575998C846.676 0.575998 851.587 1.63433 855.736 3.751C859.969 5.86766 863.229 8.78866 865.515 12.514C867.885 16.2393 869.113 20.4727 869.198 25.214H858.022C858.022 22.7587 857.387 20.3457 856.117 17.975C854.847 15.5197 852.899 13.53 850.275 12.006C847.735 10.482 844.517 9.71999 840.623 9.71999C835.797 9.63533 831.817 10.863 828.685 13.403C825.637 15.943 824.113 19.4567 824.113 23.944C824.113 27.754 825.171 30.675 827.288 32.707C829.489 34.739 832.537 36.4323 836.432 37.787C840.326 39.057 844.814 40.5387 849.894 42.232C854.127 43.756 857.937 45.534 861.324 47.566C864.71 49.598 867.335 52.2227 869.198 55.44C871.145 58.6573 872.119 62.7637 872.119 67.759C872.119 71.9923 871.018 76.014 868.817 79.824C866.615 83.5493 863.271 86.5973 858.784 88.968C854.381 91.3387 848.835 92.524 842.147 92.524Z" fill="#111010"/>
<path d="M1051.4 91V2.09999H1080.61C1087.55 2.09999 1093.27 3.24299 1097.75 5.529C1102.24 7.815 1105.54 10.9053 1107.66 14.8C1109.86 18.6947 1110.96 23.0973 1110.96 28.008C1110.96 32.834 1109.9 37.1943 1107.79 41.089C1105.67 44.9837 1102.37 48.1163 1097.88 50.487C1093.39 52.773 1087.64 53.916 1080.61 53.916H1062.07V91H1051.4ZM1062.07 44.899H1080.35C1087.47 44.899 1092.5 43.4173 1095.47 40.454C1098.52 37.406 1100.04 33.2573 1100.04 28.008C1100.04 22.674 1098.52 18.5253 1095.47 15.562C1092.5 12.514 1087.47 10.99 1080.35 10.99H1062.07V44.899ZM1124.94 91V2.09999H1135.61V82.491H1177.01V91H1124.94ZM1186.08 91L1218.85 2.09999H1230.15L1262.79 91H1251.49L1243.36 68.14H1205.51L1197.26 91H1186.08ZM1208.69 59.504H1240.18L1224.43 15.562L1208.69 59.504ZM1286.79 91V10.863H1260.24V2.09999H1324V10.863H1297.45V91H1286.79ZM1337.02 91V2.09999H1392.01V10.863H1347.69V41.851H1388.2V50.487H1347.69V82.237H1392.01V91H1337.02ZM1437.03 92.524C1430.51 92.524 1424.84 91.3387 1420.01 88.968C1415.19 86.5973 1411.46 83.2953 1408.84 79.062C1406.21 74.8287 1404.9 69.918 1404.9 64.33H1416.08C1416.08 67.8013 1416.88 71.0187 1418.49 73.982C1420.1 76.8607 1422.43 79.189 1425.47 80.967C1428.61 82.6603 1432.46 83.507 1437.03 83.507C1443.04 83.507 1447.7 82.0677 1451 79.189C1454.3 76.3103 1455.95 72.712 1455.95 68.394C1455.95 64.838 1455.19 62.0017 1453.67 59.885C1452.14 57.6837 1450.07 55.9057 1447.44 54.551C1444.9 53.1963 1441.94 52.011 1438.55 50.995C1435.25 49.979 1431.78 48.836 1428.14 47.566C1421.28 45.1953 1416.2 42.2743 1412.9 38.803C1409.6 35.247 1407.95 30.6327 1407.95 24.96C1407.86 20.2187 1408.96 16.0277 1411.25 12.387C1413.54 8.66166 1416.75 5.78299 1420.9 3.751C1425.13 1.63433 1430.13 0.575998 1435.89 0.575998C1441.56 0.575998 1446.47 1.63433 1450.62 3.751C1454.85 5.86766 1458.11 8.78866 1460.4 12.514C1462.77 16.2393 1464 20.4727 1464.08 25.214H1452.91C1452.91 22.7587 1452.27 20.3457 1451 17.975C1449.73 15.5197 1447.78 13.53 1445.16 12.006C1442.62 10.482 1439.4 9.71999 1435.51 9.71999C1430.68 9.63533 1426.7 10.863 1423.57 13.403C1420.52 15.943 1419 19.4567 1419 23.944C1419 27.754 1420.05 30.675 1422.17 32.707C1424.37 34.739 1427.42 36.4323 1431.32 37.787C1435.21 39.057 1439.7 40.5387 1444.78 42.232C1449.01 43.756 1452.82 45.534 1456.21 47.566C1459.59 49.598 1462.22 52.2227 1464.08 55.44C1466.03 58.6573 1467 62.7637 1467 67.759C1467 71.9923 1465.9 76.014 1463.7 79.824C1461.5 83.5493 1458.15 86.5973 1453.67 88.968C1449.26 91.3387 1443.72 92.524 1437.03 92.524Z" fill="#111010"/>
<defs>
<clipPath id="clip0_102_153">
<rect width="100" height="128" fill="white" transform="translate(303 4)"/>
</clipPath>
<clipPath id="clip1_102_153">
<rect width="100" height="128" fill="white" transform="translate(899 4)"/>
</clipPath>
</defs>
</svg>
