<svg width="1440" height="133" viewBox="0 0 1440 133" fill="none" xmlns="http://www.w3.org/2000/svg">
<g clip-path="url(#clip0_102_101)">
<mask id="mask0_102_101" style="mask-type:alpha" maskUnits="userSpaceOnUse" x="750" y="4" width="100" height="128">
<path fill-rule="evenodd" clip-rule="evenodd" d="M808.334 4H791.668V42.2506L770.537 15.203L758.751 30.2878L779.88 57.3332H750V78.6663H779.883L758.753 105.713L770.538 120.798L791.668 93.7523V132H808.334V93.7539L829.462 120.798L841.247 105.713L820.117 78.6663H850V57.3332H820.12L841.249 30.2878L829.464 15.203L808.334 42.249V4Z" fill="white"/>
</mask>
<g mask="url(#mask0_102_101)">
<path fill-rule="evenodd" clip-rule="evenodd" d="M808.334 4H791.668V42.2506L770.537 15.203L758.751 30.2878L779.88 57.3332H750V78.6663H779.883L758.753 105.713L770.538 120.798L791.668 93.7523V132H808.334V93.7539L829.462 120.798L841.247 105.713L820.117 78.6663H850V57.3332H820.12L841.249 30.2878L829.464 15.203L808.334 42.249V4Z" fill="#FF9B3D"/>
<path d="M791.668 3.99994V1.3877H789.627V3.99994H791.668ZM808.334 3.99994H810.375V1.3877H808.334V3.99994ZM791.668 42.2505L790.225 44.0976L793.708 48.5573V42.2505H791.668ZM770.537 15.2029L771.98 13.3558L770.537 11.5087L769.093 13.3558L770.537 15.2029ZM758.751 30.2877L757.308 28.4407L755.865 30.2877L757.308 32.1351L758.751 30.2877ZM779.88 57.3331V59.9453H784.807L781.324 55.486L779.88 57.3331ZM750 57.3331V54.7209H747.959V57.3331H750ZM750 78.6663H747.959V81.2785H750V78.6663ZM779.883 78.6663L781.326 80.5134L784.81 76.054H779.883V78.6663ZM758.753 105.713L757.31 103.866L755.867 105.713L757.31 107.56L758.753 105.713ZM770.538 120.798L769.095 122.645L770.538 124.492L771.981 122.645L770.538 120.798ZM791.668 93.7522H793.708V87.4455L790.225 91.9049L791.668 93.7522ZM791.668 132H789.627V134.612H791.668V132ZM808.334 132V134.612H810.375V132H808.334ZM808.334 93.7538L809.777 91.9067L806.293 87.4473V93.7538H808.334ZM829.462 120.798L828.019 122.645L829.462 124.492L830.905 122.645L829.462 120.798ZM841.247 105.713L842.69 107.56L844.133 105.713L842.69 103.866L841.247 105.713ZM820.117 78.6663V76.054H815.19L818.674 80.5134L820.117 78.6663ZM850 78.6663V81.2785H852.041V78.6663H850ZM850 57.3331H852.041V54.7209H850V57.3331ZM820.12 57.3331L818.677 55.486L815.193 59.9453H820.12V57.3331ZM841.249 30.2877L842.692 32.1351L844.135 30.2877L842.692 28.4407L841.249 30.2877ZM829.464 15.2029L830.907 13.3558L829.464 11.5087L828.021 13.3558L829.464 15.2029ZM808.334 42.249H806.293V48.5554L809.777 44.0961L808.334 42.249ZM791.668 6.61219H808.334V1.3877H791.668V6.61219ZM793.708 42.2505V3.99994H789.627V42.2505H793.708ZM769.093 17.0501L790.225 44.0976L793.111 40.4034L771.98 13.3558L769.093 17.0501ZM760.194 32.1351L771.98 17.0501L769.093 13.3558L757.308 28.4407L760.194 32.1351ZM781.324 55.486L760.194 28.4407L757.308 32.1351L778.437 59.1802L781.324 55.486ZM750 59.9453H779.88V54.7209H750V59.9453ZM752.041 78.6663V57.3331H747.959V78.6663H752.041ZM779.883 76.054H750V81.2785H779.883V76.054ZM760.196 107.56L781.326 80.5134L778.44 76.8191L757.31 103.866L760.196 107.56ZM771.981 118.95L760.196 103.866L757.31 107.56L769.095 122.645L771.981 118.95ZM790.225 91.9049L769.095 118.95L771.981 122.645L793.111 95.5993L790.225 91.9049ZM793.708 132V93.7522H789.627V132H793.708ZM808.334 129.388H791.668V134.612H808.334V129.388ZM806.293 93.7538V132H810.375V93.7538H806.293ZM830.905 118.95L809.777 91.9067L806.891 95.6009L828.019 122.645L830.905 118.95ZM839.804 103.866L828.019 118.95L830.905 122.645L842.69 107.56L839.804 103.866ZM818.674 80.5134L839.804 107.56L842.69 103.866L821.56 76.8191L818.674 80.5134ZM850 76.054H820.117V81.2785H850V76.054ZM847.959 57.3331V78.6663H852.041V57.3331H847.959ZM820.12 59.9453H850V54.7209H820.12V59.9453ZM839.806 28.4407L818.677 55.486L821.563 59.1802L842.692 32.1351L839.806 28.4407ZM828.021 17.0501L839.806 32.1351L842.692 28.4407L830.907 13.3558L828.021 17.0501ZM809.777 44.0961L830.907 17.0501L828.021 13.3558L806.891 40.4018L809.777 44.0961ZM806.293 3.99994V42.249H810.375V3.99994H806.293Z" fill="#111010"/>
</g>
</g>
<g clip-path="url(#clip1_102_101)">
<mask id="mask1_102_101" style="mask-type:alpha" maskUnits="userSpaceOnUse" x="239" y="4" width="100" height="128">
<path fill-rule="evenodd" clip-rule="evenodd" d="M297.334 4H280.668V42.2506L259.537 15.203L247.751 30.2878L268.88 57.3332H239V78.6663H268.883L247.753 105.713L259.538 120.798L280.668 93.7523V132H297.334V93.7539L318.462 120.798L330.247 105.713L309.117 78.6663H339V57.3332H309.12L330.249 30.2878L318.464 15.203L297.334 42.249V4Z" fill="white"/>
</mask>
<g mask="url(#mask1_102_101)">
<path fill-rule="evenodd" clip-rule="evenodd" d="M297.334 4H280.668V42.2506L259.537 15.203L247.751 30.2878L268.88 57.3332H239V78.6663H268.883L247.753 105.713L259.538 120.798L280.668 93.7523V132H297.334V93.7539L318.462 120.798L330.247 105.713L309.117 78.6663H339V57.3332H309.12L330.249 30.2878L318.464 15.203L297.334 42.249V4Z" fill="#FF9B3D"/>
<path d="M280.668 3.99994V1.3877H278.627V3.99994H280.668ZM297.334 3.99994H299.375V1.3877H297.334V3.99994ZM280.668 42.2505L279.225 44.0976L282.708 48.5573V42.2505H280.668ZM259.537 15.2029L260.98 13.3558L259.537 11.5087L258.093 13.3558L259.537 15.2029ZM247.751 30.2877L246.308 28.4407L244.865 30.2877L246.308 32.1351L247.751 30.2877ZM268.88 57.3331V59.9453H273.807L270.324 55.486L268.88 57.3331ZM239 57.3331V54.7209H236.959V57.3331H239ZM239 78.6663H236.959V81.2785H239V78.6663ZM268.883 78.6663L270.326 80.5134L273.81 76.054H268.883V78.6663ZM247.753 105.713L246.31 103.866L244.867 105.713L246.31 107.56L247.753 105.713ZM259.538 120.798L258.095 122.645L259.538 124.492L260.981 122.645L259.538 120.798ZM280.668 93.7522H282.708V87.4455L279.225 91.9049L280.668 93.7522ZM280.668 132H278.627V134.612H280.668V132ZM297.334 132V134.612H299.375V132H297.334ZM297.334 93.7538L298.777 91.9067L295.293 87.4473V93.7538H297.334ZM318.462 120.798L317.019 122.645L318.462 124.492L319.905 122.645L318.462 120.798ZM330.247 105.713L331.69 107.56L333.133 105.713L331.69 103.866L330.247 105.713ZM309.117 78.6663V76.054H304.19L307.674 80.5134L309.117 78.6663ZM339 78.6663V81.2785H341.041V78.6663H339ZM339 57.3331H341.041V54.7209H339V57.3331ZM309.12 57.3331L307.677 55.486L304.193 59.9453H309.12V57.3331ZM330.249 30.2877L331.692 32.1351L333.135 30.2877L331.692 28.4407L330.249 30.2877ZM318.464 15.2029L319.907 13.3558L318.464 11.5087L317.021 13.3558L318.464 15.2029ZM297.334 42.249H295.293V48.5554L298.777 44.0961L297.334 42.249ZM280.668 6.61219H297.334V1.3877H280.668V6.61219ZM282.708 42.2505V3.99994H278.627V42.2505H282.708ZM258.093 17.0501L279.225 44.0976L282.111 40.4034L260.98 13.3558L258.093 17.0501ZM249.194 32.1351L260.98 17.0501L258.093 13.3558L246.308 28.4407L249.194 32.1351ZM270.324 55.486L249.194 28.4407L246.308 32.1351L267.437 59.1802L270.324 55.486ZM239 59.9453H268.88V54.7209H239V59.9453ZM241.041 78.6663V57.3331H236.959V78.6663H241.041ZM268.883 76.054H239V81.2785H268.883V76.054ZM249.196 107.56L270.326 80.5134L267.44 76.8191L246.31 103.866L249.196 107.56ZM260.981 118.95L249.196 103.866L246.31 107.56L258.095 122.645L260.981 118.95ZM279.225 91.9049L258.095 118.95L260.981 122.645L282.111 95.5993L279.225 91.9049ZM282.708 132V93.7522H278.627V132H282.708ZM297.334 129.388H280.668V134.612H297.334V129.388ZM295.293 93.7538V132H299.375V93.7538H295.293ZM319.905 118.95L298.777 91.9067L295.891 95.6009L317.019 122.645L319.905 118.95ZM328.804 103.866L317.019 118.95L319.905 122.645L331.69 107.56L328.804 103.866ZM307.674 80.5134L328.804 107.56L331.69 103.866L310.56 76.8191L307.674 80.5134ZM339 76.054H309.117V81.2785H339V76.054ZM336.959 57.3331V78.6663H341.041V57.3331H336.959ZM309.12 59.9453H339V54.7209H309.12V59.9453ZM328.806 28.4407L307.677 55.486L310.563 59.1802L331.692 32.1351L328.806 28.4407ZM317.021 17.0501L328.806 32.1351L331.692 28.4407L319.907 13.3558L317.021 17.0501ZM298.777 44.0961L319.907 17.0501L317.021 13.3558L295.891 40.4018L298.777 44.0961ZM295.293 3.99994V42.249H299.375V3.99994H295.293Z" fill="#111010"/>
</g>
</g>
<g clip-path="url(#clip2_102_101)">
<mask id="mask2_102_101" style="mask-type:alpha" maskUnits="userSpaceOnUse" x="1345" y="4" width="100" height="128">
<path fill-rule="evenodd" clip-rule="evenodd" d="M1403.33 4H1386.67V42.2506L1365.54 15.203L1353.75 30.2878L1374.88 57.3332H1345V78.6663H1374.88L1353.75 105.713L1365.54 120.798L1386.67 93.7523V132H1403.33V93.7539L1424.46 120.798L1436.25 105.713L1415.12 78.6663H1445V57.3332H1415.12L1436.25 30.2878L1424.46 15.203L1403.33 42.249V4Z" fill="white"/>
</mask>
<g mask="url(#mask2_102_101)">
<path fill-rule="evenodd" clip-rule="evenodd" d="M1403.33 4H1386.67V42.2506L1365.54 15.203L1353.75 30.2878L1374.88 57.3332H1345V78.6663H1374.88L1353.75 105.713L1365.54 120.798L1386.67 93.7523V132H1403.33V93.7539L1424.46 120.798L1436.25 105.713L1415.12 78.6663H1445V57.3332H1415.12L1436.25 30.2878L1424.46 15.203L1403.33 42.249V4Z" fill="#FF9B3D"/>
<path d="M1386.67 3.99994V1.3877H1384.63V3.99994H1386.67ZM1403.33 3.99994H1405.37V1.3877H1403.33V3.99994ZM1386.67 42.2505L1385.22 44.0976L1388.71 48.5573V42.2505H1386.67ZM1365.54 15.2029L1366.98 13.3558L1365.54 11.5087L1364.09 13.3558L1365.54 15.2029ZM1353.75 30.2877L1352.31 28.4407L1350.87 30.2877L1352.31 32.1351L1353.75 30.2877ZM1374.88 57.3331V59.9453H1379.81L1376.32 55.486L1374.88 57.3331ZM1345 57.3331V54.7209H1342.96V57.3331H1345ZM1345 78.6663H1342.96V81.2785H1345V78.6663ZM1374.88 78.6663L1376.33 80.5134L1379.81 76.054H1374.88V78.6663ZM1353.75 105.713L1352.31 103.866L1350.87 105.713L1352.31 107.56L1353.75 105.713ZM1365.54 120.798L1364.1 122.645L1365.54 124.492L1366.98 122.645L1365.54 120.798ZM1386.67 93.7522H1388.71V87.4455L1385.22 91.9049L1386.67 93.7522ZM1386.67 132H1384.63V134.612H1386.67V132ZM1403.33 132V134.612H1405.37V132H1403.33ZM1403.33 93.7538L1404.78 91.9067L1401.29 87.4473V93.7538H1403.33ZM1424.46 120.798L1423.02 122.645L1424.46 124.492L1425.91 122.645L1424.46 120.798ZM1436.25 105.713L1437.69 107.56L1439.13 105.713L1437.69 103.866L1436.25 105.713ZM1415.12 78.6663V76.054H1410.19L1413.67 80.5134L1415.12 78.6663ZM1445 78.6663V81.2785H1447.04V78.6663H1445ZM1445 57.3331H1447.04V54.7209H1445V57.3331ZM1415.12 57.3331L1413.68 55.486L1410.19 59.9453H1415.12V57.3331ZM1436.25 30.2877L1437.69 32.1351L1439.14 30.2877L1437.69 28.4407L1436.25 30.2877ZM1424.46 15.2029L1425.91 13.3558L1424.46 11.5087L1423.02 13.3558L1424.46 15.2029ZM1403.33 42.249H1401.29V48.5554L1404.78 44.0961L1403.33 42.249ZM1386.67 6.61219H1403.33V1.3877H1386.67V6.61219ZM1388.71 42.2505V3.99994H1384.63V42.2505H1388.71ZM1364.09 17.0501L1385.22 44.0976L1388.11 40.4034L1366.98 13.3558L1364.09 17.0501ZM1355.19 32.1351L1366.98 17.0501L1364.09 13.3558L1352.31 28.4407L1355.19 32.1351ZM1376.32 55.486L1355.19 28.4407L1352.31 32.1351L1373.44 59.1802L1376.32 55.486ZM1345 59.9453H1374.88V54.7209H1345V59.9453ZM1347.04 78.6663V57.3331H1342.96V78.6663H1347.04ZM1374.88 76.054H1345V81.2785H1374.88V76.054ZM1355.2 107.56L1376.33 80.5134L1373.44 76.8191L1352.31 103.866L1355.2 107.56ZM1366.98 118.95L1355.2 103.866L1352.31 107.56L1364.1 122.645L1366.98 118.95ZM1385.22 91.9049L1364.1 118.95L1366.98 122.645L1388.11 95.5993L1385.22 91.9049ZM1388.71 132V93.7522H1384.63V132H1388.71ZM1403.33 129.388H1386.67V134.612H1403.33V129.388ZM1401.29 93.7538V132H1405.37V93.7538H1401.29ZM1425.91 118.95L1404.78 91.9067L1401.89 95.6009L1423.02 122.645L1425.91 118.95ZM1434.8 103.866L1423.02 118.95L1425.91 122.645L1437.69 107.56L1434.8 103.866ZM1413.67 80.5134L1434.8 107.56L1437.69 103.866L1416.56 76.8191L1413.67 80.5134ZM1445 76.054H1415.12V81.2785H1445V76.054ZM1442.96 57.3331V78.6663H1447.04V57.3331H1442.96ZM1415.12 59.9453H1445V54.7209H1415.12V59.9453ZM1434.81 28.4407L1413.68 55.486L1416.56 59.1802L1437.69 32.1351L1434.81 28.4407ZM1423.02 17.0501L1434.81 32.1351L1437.69 28.4407L1425.91 13.3558L1423.02 17.0501ZM1404.78 44.0961L1425.91 17.0501L1423.02 13.3558L1401.89 40.4018L1404.78 44.0961ZM1401.29 3.99994V42.249H1405.37V3.99994H1401.29Z" fill="#111010"/>
</g>
</g>
<path d="M-134.52 92L-168.184 2.39999H-156.536L-128.248 80.608L-99.704 2.39999H-88.312L-121.976 92H-134.52ZM-94.035 92L-61.011 2.39999H-49.619L-16.723 92H-28.115L-36.307 68.96H-74.451L-82.771 92H-94.035ZM-71.251 60.256H-39.507L-55.379 15.968L-71.251 60.256ZM25.141 93.536C18.5703 93.536 12.853 92.3413 7.989 89.952C3.125 87.5627 -0.629666 84.2347 -3.275 79.968C-5.92033 75.7013 -7.243 70.752 -7.243 65.12H4.021C4.021 68.6187 4.83167 71.8613 6.453 74.848C8.07433 77.7493 10.421 80.096 13.493 81.888C16.6503 83.5947 20.533 84.448 25.141 84.448C31.1997 84.448 35.893 82.9973 39.221 80.096C42.549 77.1947 44.213 73.568 44.213 69.216C44.213 65.632 43.445 62.7733 41.909 60.64C40.373 58.4213 38.2823 56.6293 35.637 55.264C33.077 53.8987 30.0903 52.704 26.677 51.68C23.349 50.656 19.8503 49.504 16.181 48.224C9.269 45.8347 4.149 42.8907 0.821001 39.392C-2.507 35.808 -4.171 31.1573 -4.171 25.44C-4.25633 20.6613 -3.147 16.4373 -0.842999 12.768C1.461 9.01333 4.70367 6.11199 8.885 4.064C13.1517 1.93066 18.1863 0.863998 23.989 0.863998C29.7063 0.863998 34.6557 1.93066 38.837 4.064C43.1037 6.19733 46.389 9.14133 48.693 12.896C51.0823 16.6507 52.3197 20.9173 52.405 25.696H41.141C41.141 23.2213 40.501 20.7893 39.221 18.4C37.941 15.9253 35.9783 13.92 33.333 12.384C30.773 10.848 27.5303 10.08 23.605 10.08C18.741 9.99466 14.7303 11.232 11.573 13.792C8.501 16.352 6.965 19.8933 6.965 24.416C6.965 28.256 8.03167 31.2 10.165 33.248C12.3837 35.296 15.4557 37.0027 19.381 38.368C23.3063 39.648 27.829 41.1413 32.949 42.848C37.2157 44.384 41.0557 46.176 44.469 48.224C47.8823 50.272 50.5277 52.9173 52.405 56.16C54.3677 59.4027 55.349 63.5413 55.349 68.576C55.349 72.8427 54.2397 76.896 52.021 80.736C49.8023 84.4907 46.4317 87.5627 41.909 89.952C37.4717 92.3413 31.8823 93.536 25.141 93.536ZM70.597 92V2.39999H126.021V11.232H81.349V42.464H122.181V51.168H81.349V83.168H126.021V92H70.597ZM171.391 93.536C164.82 93.536 159.103 92.3413 154.239 89.952C149.375 87.5627 145.62 84.2347 142.975 79.968C140.33 75.7013 139.007 70.752 139.007 65.12H150.271C150.271 68.6187 151.082 71.8613 152.703 74.848C154.324 77.7493 156.671 80.096 159.743 81.888C162.9 83.5947 166.783 84.448 171.391 84.448C177.45 84.448 182.143 82.9973 185.471 80.096C188.799 77.1947 190.463 73.568 190.463 69.216C190.463 65.632 189.695 62.7733 188.159 60.64C186.623 58.4213 184.532 56.6293 181.887 55.264C179.327 53.8987 176.34 52.704 172.927 51.68C169.599 50.656 166.1 49.504 162.431 48.224C155.519 45.8347 150.399 42.8907 147.071 39.392C143.743 35.808 142.079 31.1573 142.079 25.44C141.994 20.6613 143.103 16.4373 145.407 12.768C147.711 9.01333 150.954 6.11199 155.135 4.064C159.402 1.93066 164.436 0.863998 170.239 0.863998C175.956 0.863998 180.906 1.93066 185.087 4.064C189.354 6.19733 192.639 9.14133 194.943 12.896C197.332 16.6507 198.57 20.9173 198.655 25.696H187.391C187.391 23.2213 186.751 20.7893 185.471 18.4C184.191 15.9253 182.228 13.92 179.583 12.384C177.023 10.848 173.78 10.08 169.855 10.08C164.991 9.99466 160.98 11.232 157.823 13.792C154.751 16.352 153.215 19.8933 153.215 24.416C153.215 28.256 154.282 31.2 156.415 33.248C158.634 35.296 161.706 37.0027 165.631 38.368C169.556 39.648 174.079 41.1413 179.199 42.848C183.466 44.384 187.306 46.176 190.719 48.224C194.132 50.272 196.778 52.9173 198.655 56.16C200.618 59.4027 201.599 63.5413 201.599 68.576C201.599 72.8427 200.49 76.896 198.271 80.736C196.052 84.4907 192.682 87.5627 188.159 89.952C183.722 92.3413 178.132 93.536 171.391 93.536Z" fill="#111010"/>
<path d="M378.398 91V2.09999H390.844L422.848 64.076L454.598 2.09999H467.171V91H456.503V21.15L426.785 78.3H418.784L389.066 21.277V91H378.398ZM518.057 92.524C511.961 92.524 506.416 91.3387 501.42 88.968C496.51 86.5127 492.573 82.745 489.609 77.665C486.646 72.585 485.164 66.108 485.164 58.234V2.09999H495.832V58.361C495.832 66.997 497.907 73.2623 502.055 77.157C506.204 81.0517 511.623 82.999 518.311 82.999C525 82.999 530.376 81.0517 534.44 77.157C538.504 73.2623 540.536 66.997 540.536 58.361V2.09999H551.204V58.234C551.204 66.108 549.723 72.585 546.759 77.665C543.796 82.745 539.817 86.5127 534.821 88.968C529.826 91.3387 524.238 92.524 518.057 92.524ZM607.497 92.524C599.2 92.524 591.918 90.619 585.653 86.809C579.388 82.9143 574.519 77.538 571.048 70.68C567.577 63.7373 565.841 55.7363 565.841 46.677C565.841 37.6177 567.577 29.6167 571.048 22.674C574.604 15.7313 579.599 10.3127 586.034 6.418C592.553 2.52333 600.216 0.575998 609.021 0.575998C619.012 0.575998 627.309 2.989 633.913 7.815C640.602 12.641 644.92 19.2873 646.867 27.754H634.548C633.363 22.42 630.526 18.1867 626.039 15.054C621.636 11.9213 615.964 10.355 609.021 10.355C602.502 10.355 596.829 11.8367 592.003 14.8C587.177 17.6787 583.409 21.8273 580.7 27.246C578.075 32.6647 576.763 39.1417 576.763 46.677C576.763 54.2123 578.075 60.6893 580.7 66.108C583.325 71.5267 586.965 75.7177 591.622 78.681C596.279 81.5597 601.697 82.999 607.878 82.999C617.361 82.999 624.515 80.2473 629.341 74.744C634.167 69.156 636.919 61.536 637.596 51.884H611.942V43.502H648.518V91H638.739L637.85 76.395C634.633 81.5597 630.696 85.539 626.039 88.333C621.382 91.127 615.202 92.524 607.497 92.524ZM693.709 92.524C687.19 92.524 681.517 91.3387 676.691 88.968C671.865 86.5973 668.14 83.2953 665.515 79.062C662.891 74.8287 661.578 69.918 661.578 64.33H672.754C672.754 67.8013 673.559 71.0187 675.167 73.982C676.776 76.8607 679.104 79.189 682.152 80.967C685.285 82.6603 689.137 83.507 693.709 83.507C699.721 83.507 704.377 82.0677 707.679 79.189C710.981 76.3103 712.632 72.712 712.632 68.394C712.632 64.838 711.87 62.0017 710.346 59.885C708.822 57.6837 706.748 55.9057 704.123 54.551C701.583 53.1963 698.62 52.011 695.233 50.995C691.931 49.979 688.46 48.836 684.819 47.566C677.961 45.1953 672.881 42.2743 669.579 38.803C666.277 35.247 664.626 30.6327 664.626 24.96C664.542 20.2187 665.642 16.0277 667.928 12.387C670.214 8.66166 673.432 5.78299 677.58 3.751C681.814 1.63433 686.809 0.575998 692.566 0.575998C698.239 0.575998 703.15 1.63433 707.298 3.751C711.532 5.86766 714.791 8.78866 717.077 12.514C719.448 16.2393 720.676 20.4727 720.76 25.214H709.584C709.584 22.7587 708.949 20.3457 707.679 17.975C706.409 15.5197 704.462 13.53 701.837 12.006C699.297 10.482 696.08 9.71999 692.185 9.71999C687.359 9.63533 683.38 10.863 680.247 13.403C677.199 15.943 675.675 19.4567 675.675 23.944C675.675 27.754 676.734 30.675 678.85 32.707C681.052 34.739 684.1 36.4323 687.994 37.787C691.889 39.057 696.376 40.5387 701.456 42.232C705.69 43.756 709.5 45.534 712.886 47.566C716.273 49.598 718.898 52.2227 720.76 55.44C722.708 58.6573 723.681 62.7637 723.681 67.759C723.681 71.9923 722.581 76.014 720.379 79.824C718.178 83.5493 714.834 86.5973 710.346 88.968C705.944 91.3387 700.398 92.524 693.709 92.524Z" fill="#111010"/>
<path d="M902.398 91V2.09999H931.608C938.551 2.09999 944.266 3.24299 948.753 5.529C953.24 7.815 956.542 10.9053 958.659 14.8C960.86 18.6947 961.961 23.0973 961.961 28.008C961.961 32.834 960.903 37.1943 958.786 41.089C956.669 44.9837 953.367 48.1163 948.88 50.487C944.393 52.773 938.635 53.916 931.608 53.916H913.066V91H902.398ZM913.066 44.899H931.354C938.466 44.899 943.504 43.4173 946.467 40.454C949.515 37.406 951.039 33.2573 951.039 28.008C951.039 22.674 949.515 18.5253 946.467 15.562C943.504 12.514 938.466 10.99 931.354 10.99H913.066V44.899ZM975.944 91V2.09999H986.612V82.491H1028.01V91H975.944ZM1037.08 91L1069.85 2.09999H1081.15L1113.79 91H1102.49L1094.36 68.14H1056.51L1048.26 91H1037.08ZM1059.69 59.504H1091.18L1075.43 15.562L1059.69 59.504ZM1137.79 91V10.863H1111.24V2.09999H1175V10.863H1148.45V91H1137.79ZM1188.02 91V2.09999H1243.01V10.863H1198.69V41.851H1239.2V50.487H1198.69V82.237H1243.01V91H1188.02ZM1288.03 92.524C1281.51 92.524 1275.84 91.3387 1271.01 88.968C1266.19 86.5973 1262.46 83.2953 1259.84 79.062C1257.21 74.8287 1255.9 69.918 1255.9 64.33H1267.08C1267.08 67.8013 1267.88 71.0187 1269.49 73.982C1271.1 76.8607 1273.43 79.189 1276.47 80.967C1279.61 82.6603 1283.46 83.507 1288.03 83.507C1294.04 83.507 1298.7 82.0677 1302 79.189C1305.3 76.3103 1306.95 72.712 1306.95 68.394C1306.95 64.838 1306.19 62.0017 1304.67 59.885C1303.14 57.6837 1301.07 55.9057 1298.44 54.551C1295.9 53.1963 1292.94 52.011 1289.55 50.995C1286.25 49.979 1282.78 48.836 1279.14 47.566C1272.28 45.1953 1267.2 42.2743 1263.9 38.803C1260.6 35.247 1258.95 30.6327 1258.95 24.96C1258.86 20.2187 1259.96 16.0277 1262.25 12.387C1264.54 8.66166 1267.75 5.78299 1271.9 3.751C1276.13 1.63433 1281.13 0.575998 1286.89 0.575998C1292.56 0.575998 1297.47 1.63433 1301.62 3.751C1305.85 5.86766 1309.11 8.78866 1311.4 12.514C1313.77 16.2393 1315 20.4727 1315.08 25.214H1303.91C1303.91 22.7587 1303.27 20.3457 1302 17.975C1300.73 15.5197 1298.78 13.53 1296.16 12.006C1293.62 10.482 1290.4 9.71999 1286.51 9.71999C1281.68 9.63533 1277.7 10.863 1274.57 13.403C1271.52 15.943 1270 19.4567 1270 23.944C1270 27.754 1271.05 30.675 1273.17 32.707C1275.37 34.739 1278.42 36.4323 1282.32 37.787C1286.21 39.057 1290.7 40.5387 1295.78 42.232C1300.01 43.756 1303.82 45.534 1307.21 47.566C1310.59 49.598 1313.22 52.2227 1315.08 55.44C1317.03 58.6573 1318 62.7637 1318 67.759C1318 71.9923 1316.9 76.014 1314.7 79.824C1312.5 83.5493 1309.15 86.5973 1304.67 88.968C1300.26 91.3387 1294.72 92.524 1288.03 92.524Z" fill="#111010"/>
<defs>
<clipPath id="clip0_102_101">
<rect width="100" height="128" fill="white" transform="translate(750 4)"/>
</clipPath>
<clipPath id="clip1_102_101">
<rect width="100" height="128" fill="white" transform="translate(239 4)"/>
</clipPath>
<clipPath id="clip2_102_101">
<rect width="100" height="128" fill="white" transform="translate(1345 4)"/>
</clipPath>
</defs>
</svg>
