<svg width="248" height="248" viewBox="0 0 248 248" fill="none" xmlns="http://www.w3.org/2000/svg">
<path d="M247.5 150V247.5H0.5V150C0.5 81.7928 55.7928 26.5 124 26.5C192.207 26.5 247.5 81.7928 247.5 150Z" fill="#FF9B3D" stroke="#111010"/>
<path d="M46.1646 222L53.9046 201H56.5746L64.2846 222H61.6146L59.6946 216.6H50.7546L48.8046 222H46.1646ZM51.5046 214.56H58.9446L55.2246 204.18L51.5046 214.56ZM67.4065 222V201H74.3065C75.9465 201 77.2965 201.27 78.3565 201.81C79.4165 202.35 80.1965 203.08 80.6965 204C81.2165 204.92 81.4765 205.96 81.4765 207.12C81.4765 208.26 81.2265 209.29 80.7265 210.21C80.2265 211.13 79.4465 211.87 78.3865 212.43C77.3265 212.97 75.9665 213.24 74.3065 213.24H69.9265V222H67.4065ZM69.9265 211.11H74.2465C75.9265 211.11 77.1165 210.76 77.8165 210.06C78.5365 209.34 78.8965 208.36 78.8965 207.12C78.8965 205.86 78.5365 204.88 77.8165 204.18C77.1165 203.46 75.9265 203.1 74.2465 203.1H69.9265V211.11ZM84.7796 222V201H91.5596C93.1996 201 94.5396 201.27 95.5796 201.81C96.6196 202.35 97.3896 203.09 97.8896 204.03C98.3896 204.97 98.6396 206.01 98.6396 207.15C98.6396 208.47 98.2796 209.66 97.5596 210.72C96.8596 211.78 95.7596 212.53 94.2596 212.97L98.8496 222H95.8796L91.6196 213.33H91.4396H87.2996V222H84.7796ZM87.2996 211.35H91.3796C92.9996 211.35 94.1796 210.96 94.9196 210.18C95.6596 209.4 96.0296 208.4 96.0296 207.18C96.0296 205.94 95.6596 204.96 94.9196 204.24C94.1996 203.5 93.0096 203.13 91.3496 203.13H87.2996V211.35ZM102.563 222V201H105.083V222H102.563ZM109.535 222V201H112.055V219.99H121.835V222H109.535ZM132.907 222V220.23C134.327 219.11 135.667 217.98 136.927 216.84C138.207 215.68 139.337 214.54 140.317 213.42C141.317 212.3 142.097 211.2 142.657 210.12C143.237 209.04 143.527 208 143.527 207C143.527 206.26 143.397 205.57 143.137 204.93C142.897 204.29 142.497 203.78 141.937 203.4C141.377 203 140.617 202.8 139.657 202.8C138.737 202.8 137.967 203.01 137.347 203.43C136.727 203.83 136.257 204.37 135.937 205.05C135.637 205.73 135.487 206.46 135.487 207.24H133.057C133.057 205.86 133.347 204.68 133.927 203.7C134.507 202.7 135.297 201.94 136.297 201.42C137.297 200.9 138.427 200.64 139.687 200.64C141.547 200.64 143.067 201.17 144.247 202.23C145.447 203.27 146.047 204.83 146.047 206.91C146.047 208.15 145.737 209.38 145.117 210.6C144.497 211.8 143.707 212.97 142.747 214.11C141.787 215.23 140.757 216.28 139.657 217.26C138.577 218.24 137.567 219.12 136.627 219.9H146.767V222H132.907ZM158.302 222.36C156.442 222.36 154.832 221.91 153.472 221.01C152.132 220.09 151.102 218.82 150.382 217.2C149.662 215.56 149.302 213.66 149.302 211.5C149.302 209.34 149.662 207.45 150.382 205.83C151.102 204.19 152.132 202.92 153.472 202.02C154.832 201.1 156.442 200.64 158.302 200.64C160.162 200.64 161.762 201.1 163.102 202.02C164.442 202.92 165.472 204.19 166.192 205.83C166.912 207.45 167.272 209.34 167.272 211.5C167.272 213.66 166.912 215.56 166.192 217.2C165.472 218.82 164.442 220.09 163.102 221.01C161.762 221.91 160.162 222.36 158.302 222.36ZM158.302 220.14C159.522 220.14 160.612 219.8 161.572 219.12C162.552 218.42 163.312 217.43 163.852 216.15C164.412 214.85 164.692 213.3 164.692 211.5C164.692 209.7 164.412 208.16 163.852 206.88C163.312 205.6 162.552 204.62 161.572 203.94C160.612 203.24 159.522 202.89 158.302 202.89C157.062 202.89 155.962 203.24 155.002 203.94C154.042 204.62 153.282 205.6 152.722 206.88C152.162 208.16 151.882 209.7 151.882 211.5C151.882 213.3 152.162 214.85 152.722 216.15C153.282 217.43 154.042 218.42 155.002 219.12C155.962 219.8 157.062 220.14 158.302 220.14ZM170.289 222V220.23C171.709 219.11 173.049 217.98 174.309 216.84C175.589 215.68 176.719 214.54 177.699 213.42C178.699 212.3 179.479 211.2 180.039 210.12C180.619 209.04 180.909 208 180.909 207C180.909 206.26 180.779 205.57 180.519 204.93C180.279 204.29 179.879 203.78 179.319 203.4C178.759 203 177.999 202.8 177.039 202.8C176.119 202.8 175.349 203.01 174.729 203.43C174.109 203.83 173.639 204.37 173.319 205.05C173.019 205.73 172.869 206.46 172.869 207.24H170.439C170.439 205.86 170.729 204.68 171.309 203.7C171.889 202.7 172.679 201.94 173.679 201.42C174.679 200.9 175.809 200.64 177.069 200.64C178.929 200.64 180.449 201.17 181.629 202.23C182.829 203.27 183.429 204.83 183.429 206.91C183.429 208.15 183.119 209.38 182.499 210.6C181.879 211.8 181.089 212.97 180.129 214.11C179.169 215.23 178.139 216.28 177.039 217.26C175.959 218.24 174.949 219.12 174.009 219.9H184.149V222H170.289ZM187.457 222V220.23C188.877 219.11 190.217 217.98 191.477 216.84C192.757 215.68 193.887 214.54 194.867 213.42C195.867 212.3 196.647 211.2 197.207 210.12C197.787 209.04 198.077 208 198.077 207C198.077 206.26 197.947 205.57 197.687 204.93C197.447 204.29 197.047 203.78 196.487 203.4C195.927 203 195.167 202.8 194.207 202.8C193.287 202.8 192.517 203.01 191.897 203.43C191.277 203.83 190.807 204.37 190.487 205.05C190.187 205.73 190.037 206.46 190.037 207.24H187.607C187.607 205.86 187.897 204.68 188.477 203.7C189.057 202.7 189.847 201.94 190.847 201.42C191.847 200.9 192.977 200.64 194.237 200.64C196.097 200.64 197.617 201.17 198.797 202.23C199.997 203.27 200.597 204.83 200.597 206.91C200.597 208.15 200.287 209.38 199.667 210.6C199.047 211.8 198.257 212.97 197.297 214.11C196.337 215.23 195.307 216.28 194.207 217.26C193.127 218.24 192.117 219.12 191.177 219.9H201.317V222H187.457Z" fill="#111010"/>
<path d="M89.4397 95V74H91.9597L103.15 90.83V74H105.67V95H103.15L91.9597 78.17V95H89.4397ZM110.123 95V74H123.113V76.07H112.643V83.39H122.213V85.43H112.643V92.93H123.113V95H110.123ZM131.377 95.03L125.617 74H128.317L132.847 92.03L138.007 74H140.797L145.807 92.03L150.397 74H153.097L147.217 95H144.337L139.327 77.66L134.197 95L131.377 95.03ZM44.6116 139.36C42.5516 139.36 40.7716 138.91 39.2716 138.01C37.7916 137.09 36.6416 135.82 35.8216 134.2C35.0016 132.56 34.5916 130.66 34.5916 128.5C34.5916 126.36 35.0016 124.48 35.8216 122.86C36.6416 121.22 37.7916 119.94 39.2716 119.02C40.7716 118.1 42.5516 117.64 44.6116 117.64C47.0116 117.64 48.9616 118.22 50.4616 119.38C51.9816 120.52 52.9516 122.12 53.3716 124.18H50.5816C50.2616 122.88 49.6016 121.84 48.6016 121.06C47.6216 120.26 46.2916 119.86 44.6116 119.86C43.1116 119.86 41.8016 120.21 40.6816 120.91C39.5616 121.59 38.6916 122.58 38.0716 123.88C37.4716 125.16 37.1716 126.7 37.1716 128.5C37.1716 130.3 37.4716 131.85 38.0716 133.15C38.6916 134.43 39.5616 135.42 40.6816 136.12C41.8016 136.8 43.1116 137.14 44.6116 137.14C46.2916 137.14 47.6216 136.76 48.6016 136C49.6016 135.22 50.2616 134.19 50.5816 132.91H53.3716C52.9516 134.93 51.9816 136.51 50.4616 137.65C48.9616 138.79 47.0116 139.36 44.6116 139.36ZM66.5334 139.36C64.4734 139.36 62.6634 138.91 61.1034 138.01C59.5634 137.09 58.3534 135.81 57.4734 134.17C56.6134 132.53 56.1834 130.64 56.1834 128.5C56.1834 126.36 56.6134 124.48 57.4734 122.86C58.3534 121.22 59.5634 119.94 61.1034 119.02C62.6634 118.1 64.4734 117.64 66.5334 117.64C68.6134 117.64 70.4234 118.1 71.9634 119.02C73.5234 119.94 74.7334 121.22 75.5934 122.86C76.4534 124.48 76.8834 126.36 76.8834 128.5C76.8834 130.64 76.4534 132.53 75.5934 134.17C74.7334 135.81 73.5234 137.09 71.9634 138.01C70.4234 138.91 68.6134 139.36 66.5334 139.36ZM66.5334 137.14C68.0734 137.14 69.4234 136.8 70.5834 136.12C71.7634 135.42 72.6734 134.43 73.3134 133.15C73.9734 131.85 74.3034 130.3 74.3034 128.5C74.3034 126.7 73.9734 125.16 73.3134 123.88C72.6734 122.6 71.7634 121.62 70.5834 120.94C69.4234 120.24 68.0734 119.89 66.5334 119.89C64.9934 119.89 63.6334 120.24 62.4534 120.94C61.2934 121.62 60.3834 122.6 59.7234 123.88C59.0834 125.16 58.7634 126.7 58.7634 128.5C58.7634 130.3 59.0834 131.85 59.7234 133.15C60.3834 134.43 61.2934 135.42 62.4534 136.12C63.6334 136.8 64.9934 137.14 66.5334 137.14ZM80.5188 139V118H83.0388V136.99H92.8188V139H80.5188ZM96.2805 139V118H98.8005V136.99H108.581V139H96.2805ZM112.042 139V118H125.032V120.07H114.562V127.39H124.132V129.43H114.562V136.93H125.032V139H112.042ZM138.186 139.36C136.126 139.36 134.346 138.91 132.846 138.01C131.366 137.09 130.216 135.82 129.396 134.2C128.576 132.56 128.166 130.66 128.166 128.5C128.166 126.36 128.576 124.48 129.396 122.86C130.216 121.22 131.366 119.94 132.846 119.02C134.346 118.1 136.126 117.64 138.186 117.64C140.586 117.64 142.536 118.22 144.036 119.38C145.556 120.52 146.526 122.12 146.946 124.18H144.156C143.836 122.88 143.176 121.84 142.176 121.06C141.196 120.26 139.866 119.86 138.186 119.86C136.686 119.86 135.376 120.21 134.256 120.91C133.136 121.59 132.266 122.58 131.646 123.88C131.046 125.16 130.746 126.7 130.746 128.5C130.746 130.3 131.046 131.85 131.646 133.15C132.266 134.43 133.136 135.42 134.256 136.12C135.376 136.8 136.686 137.14 138.186 137.14C139.866 137.14 141.196 136.76 142.176 136C143.176 135.22 143.836 134.19 144.156 132.91H146.946C146.526 134.93 145.556 136.51 144.036 137.65C142.536 138.79 140.586 139.36 138.186 139.36ZM154.99 139V120.07H148.72V118H163.78V120.07H157.51V139H154.99ZM166.857 139V118H169.377V139H166.857ZM183.369 139.36C181.309 139.36 179.499 138.91 177.939 138.01C176.399 137.09 175.189 135.81 174.309 134.17C173.449 132.53 173.019 130.64 173.019 128.5C173.019 126.36 173.449 124.48 174.309 122.86C175.189 121.22 176.399 119.94 177.939 119.02C179.499 118.1 181.309 117.64 183.369 117.64C185.449 117.64 187.259 118.1 188.799 119.02C190.359 119.94 191.569 121.22 192.429 122.86C193.289 124.48 193.719 126.36 193.719 128.5C193.719 130.64 193.289 132.53 192.429 134.17C191.569 135.81 190.359 137.09 188.799 138.01C187.259 138.91 185.449 139.36 183.369 139.36ZM183.369 137.14C184.909 137.14 186.259 136.8 187.419 136.12C188.599 135.42 189.509 134.43 190.149 133.15C190.809 131.85 191.139 130.3 191.139 128.5C191.139 126.7 190.809 125.16 190.149 123.88C189.509 122.6 188.599 121.62 187.419 120.94C186.259 120.24 184.909 119.89 183.369 119.89C181.829 119.89 180.469 120.24 179.289 120.94C178.129 121.62 177.219 122.6 176.559 123.88C175.919 125.16 175.599 126.7 175.599 128.5C175.599 130.3 175.919 131.85 176.559 133.15C177.219 134.43 178.129 135.42 179.289 136.12C180.469 136.8 181.829 137.14 183.369 137.14ZM197.355 139V118H199.875L211.065 134.83V118H213.585V139H211.065L199.875 122.17V139H197.355Z" fill="#111010"/>
</svg>
