<svg width="317" height="36" viewBox="0 0 317 36" fill="none" xmlns="http://www.w3.org/2000/svg">
<path d="M12.256 35.576C9.792 35.576 7.648 35.128 5.824 34.232C4 33.336 2.592 32.088 1.6 30.488C0.608 28.888 0.112 27.032 0.112 24.92H4.336C4.336 26.232 4.64 27.448 5.248 28.568C5.856 29.656 6.736 30.536 7.888 31.208C9.072 31.848 10.528 32.168 12.256 32.168C14.528 32.168 16.288 31.624 17.536 30.536C18.784 29.448 19.408 28.088 19.408 26.456C19.408 25.112 19.12 24.04 18.544 23.24C17.968 22.408 17.184 21.736 16.192 21.224C15.232 20.712 14.112 20.264 12.832 19.88C11.584 19.496 10.272 19.064 8.896 18.584C6.304 17.688 4.384 16.584 3.136 15.272C1.888 13.928 1.264 12.184 1.264 10.04C1.232 8.248 1.648 6.664 2.512 5.288C3.376 3.88 4.592 2.792 6.16 2.024C7.76 1.224 9.648 0.823999 11.824 0.823999C13.968 0.823999 15.824 1.224 17.392 2.024C18.992 2.824 20.224 3.928 21.088 5.336C21.984 6.744 22.448 8.344 22.48 10.136H18.256C18.256 9.208 18.016 8.296 17.536 7.4C17.056 6.472 16.32 5.72 15.328 5.144C14.368 4.568 13.152 4.28 11.68 4.28C9.856 4.248 8.352 4.712 7.168 5.672C6.016 6.632 5.44 7.96 5.44 9.656C5.44 11.096 5.84 12.2 6.64 12.968C7.472 13.736 8.624 14.376 10.096 14.888C11.568 15.368 13.264 15.928 15.184 16.568C16.784 17.144 18.224 17.816 19.504 18.584C20.784 19.352 21.776 20.344 22.48 21.56C23.216 22.776 23.584 24.328 23.584 26.216C23.584 27.816 23.168 29.336 22.336 30.776C21.504 32.184 20.24 33.336 18.544 34.232C16.88 35.128 14.784 35.576 12.256 35.576ZM36.3771 35V4.712H26.3451V1.4H50.4411V4.712H40.4091V35H36.3771ZM67.5085 35.576C65.2045 35.576 63.1085 35.128 61.2205 34.232C59.3645 33.304 57.8765 31.88 56.7565 29.96C55.6365 28.04 55.0765 25.592 55.0765 22.616V1.4H59.1085V22.664C59.1085 25.928 59.8925 28.296 61.4605 29.768C63.0285 31.24 65.0765 31.976 67.6045 31.976C70.1325 31.976 72.1645 31.24 73.7005 29.768C75.2365 28.296 76.0045 25.928 76.0045 22.664V1.4H80.0365V22.616C80.0365 25.592 79.4765 28.04 78.3565 29.96C77.2365 31.88 75.7325 33.304 73.8445 34.232C71.9565 35.128 69.8445 35.576 67.5085 35.576ZM86.8645 35V1.4H97.1845C103.105 1.4 107.457 2.904 110.241 5.912C113.057 8.92 114.465 13.048 114.465 18.296C114.465 23.448 113.057 27.528 110.241 30.536C107.457 33.512 103.105 35 97.1845 35H86.8645ZM90.8965 31.64H97.0885C100.353 31.64 102.945 31.112 104.865 30.056C106.817 28.968 108.209 27.432 109.041 25.448C109.873 23.432 110.289 21.048 110.289 18.296C110.289 15.48 109.873 13.064 109.041 11.048C108.209 9.032 106.817 7.48 104.865 6.392C102.945 5.304 100.353 4.76 97.0885 4.76H90.8965V31.64ZM120.286 35V1.4H124.318V35H120.286ZM146.707 35.576C143.411 35.576 140.515 34.856 138.019 33.416C135.555 31.944 133.619 29.896 132.211 27.272C130.835 24.648 130.147 21.624 130.147 18.2C130.147 14.776 130.835 11.768 132.211 9.176C133.619 6.552 135.555 4.504 138.019 3.032C140.515 1.56 143.411 0.823999 146.707 0.823999C150.035 0.823999 152.931 1.56 155.395 3.032C157.891 4.504 159.827 6.552 161.203 9.176C162.579 11.768 163.267 14.776 163.267 18.2C163.267 21.624 162.579 24.648 161.203 27.272C159.827 29.896 157.891 31.944 155.395 33.416C152.931 34.856 150.035 35.576 146.707 35.576ZM146.707 32.024C149.171 32.024 151.331 31.48 153.187 30.392C155.075 29.272 156.531 27.688 157.555 25.64C158.611 23.56 159.139 21.08 159.139 18.2C159.139 15.32 158.611 12.856 157.555 10.808C156.531 8.76 155.075 7.192 153.187 6.104C151.331 4.984 149.171 4.424 146.707 4.424C144.243 4.424 142.067 4.984 140.179 6.104C138.323 7.192 136.867 8.76 135.811 10.808C134.787 12.856 134.275 15.32 134.275 18.2C134.275 21.08 134.787 23.56 135.811 25.64C136.867 27.688 138.323 29.272 140.179 30.392C142.067 31.48 144.243 32.024 146.707 32.024ZM181.786 35V1.4H192.826C195.45 1.4 197.61 1.832 199.306 2.696C201.002 3.56 202.25 4.728 203.05 6.2C203.882 7.672 204.298 9.336 204.298 11.192C204.298 13.016 203.898 14.664 203.098 16.136C202.298 17.608 201.05 18.792 199.354 19.688C197.658 20.552 195.482 20.984 192.826 20.984H185.818V35H181.786ZM185.818 17.576H192.73C195.418 17.576 197.322 17.016 198.442 15.896C199.594 14.744 200.17 13.176 200.17 11.192C200.17 9.176 199.594 7.608 198.442 6.488C197.322 5.336 195.418 4.76 192.73 4.76H185.818V17.576ZM224.847 35.576C221.551 35.576 218.655 34.856 216.159 33.416C213.695 31.944 211.759 29.896 210.351 27.272C208.975 24.648 208.287 21.624 208.287 18.2C208.287 14.776 208.975 11.768 210.351 9.176C211.759 6.552 213.695 4.504 216.159 3.032C218.655 1.56 221.551 0.823999 224.847 0.823999C228.175 0.823999 231.071 1.56 233.535 3.032C236.031 4.504 237.967 6.552 239.343 9.176C240.719 11.768 241.407 14.776 241.407 18.2C241.407 21.624 240.719 24.648 239.343 27.272C237.967 29.896 236.031 31.944 233.535 33.416C231.071 34.856 228.175 35.576 224.847 35.576ZM224.847 32.024C227.311 32.024 229.471 31.48 231.327 30.392C233.215 29.272 234.671 27.688 235.695 25.64C236.751 23.56 237.279 21.08 237.279 18.2C237.279 15.32 236.751 12.856 235.695 10.808C234.671 8.76 233.215 7.192 231.327 6.104C229.471 4.984 227.311 4.424 224.847 4.424C222.383 4.424 220.207 4.984 218.319 6.104C216.463 7.192 215.007 8.76 213.951 10.808C212.927 12.856 212.415 15.32 212.415 18.2C212.415 21.08 212.927 23.56 213.951 25.64C215.007 27.688 216.463 29.272 218.319 30.392C220.207 31.48 222.383 32.024 224.847 32.024ZM247.224 35V1.4H251.256V31.784H266.904V35H247.224ZM272.443 35V1.4H276.475V31.784H292.123V35H272.443ZM301.232 35V22.232L290.288 1.4H294.848L303.248 18.392L311.648 1.4H316.16L305.264 22.232V35H301.232Z" fill="#111010"/>
</svg>
