<svg width="265" height="30" viewBox="0 0 265 30" fill="none" xmlns="http://www.w3.org/2000/svg">
<path d="M10.88 29.48C8.82667 29.48 7.04 29.1067 5.52 28.36C4 27.6133 2.82667 26.5733 2 25.24C1.17333 23.9067 0.76 22.36 0.76 20.6H4.28C4.28 21.6933 4.53333 22.7067 5.04 23.64C5.54667 24.5467 6.28 25.28 7.24 25.84C8.22667 26.3733 9.44 26.64 10.88 26.64C12.7733 26.64 14.24 26.1867 15.28 25.28C16.32 24.3733 16.84 23.24 16.84 21.88C16.84 20.76 16.6 19.8667 16.12 19.2C15.64 18.5067 14.9867 17.9467 14.16 17.52C13.36 17.0933 12.4267 16.72 11.36 16.4C10.32 16.08 9.22667 15.72 8.08 15.32C5.92 14.5733 4.32 13.6533 3.28 12.56C2.24 11.44 1.72 9.98667 1.72 8.2C1.69333 6.70667 2.04 5.38667 2.76 4.24C3.48 3.06667 4.49333 2.16 5.8 1.52C7.13333 0.853333 8.70667 0.52 10.52 0.52C12.3067 0.52 13.8533 0.853333 15.16 1.52C16.4933 2.18666 17.52 3.10666 18.24 4.28C18.9867 5.45333 19.3733 6.78667 19.4 8.28H15.88C15.88 7.50667 15.68 6.74666 15.28 6C14.88 5.22667 14.2667 4.6 13.44 4.12C12.64 3.64 11.6267 3.4 10.4 3.4C8.88 3.37333 7.62667 3.76 6.64 4.56C5.68 5.36 5.2 6.46667 5.2 7.88C5.2 9.08 5.53333 10 6.2 10.64C6.89333 11.28 7.85333 11.8133 9.08 12.24C10.3067 12.64 11.72 13.1067 13.32 13.64C14.6533 14.12 15.8533 14.68 16.92 15.32C17.9867 15.96 18.8133 16.7867 19.4 17.8C20.0133 18.8133 20.32 20.1067 20.32 21.68C20.32 23.0133 19.9733 24.28 19.28 25.48C18.5867 26.6533 17.5333 27.6133 16.12 28.36C14.7333 29.1067 12.9867 29.48 10.88 29.48ZM30.9809 29V3.76H22.6209V0.999998H42.7009V3.76H34.3409V29H30.9809ZM56.9238 29.48C55.0038 29.48 53.2571 29.1067 51.6838 28.36C50.1371 27.5867 48.8971 26.4 47.9638 24.8C47.0304 23.2 46.5638 21.16 46.5638 18.68V0.999998H49.9238V18.72C49.9238 21.44 50.5771 23.4133 51.8838 24.64C53.1904 25.8667 54.8971 26.48 57.0038 26.48C59.1104 26.48 60.8038 25.8667 62.0838 24.64C63.3638 23.4133 64.0038 21.44 64.0038 18.72V0.999998H67.3637V18.68C67.3637 21.16 66.8971 23.2 65.9638 24.8C65.0304 26.4 63.7771 27.5867 62.2038 28.36C60.6304 29.1067 58.8704 29.48 56.9238 29.48ZM73.0538 29V0.999998H81.6538C86.5871 0.999998 90.2138 2.25333 92.5338 4.76C94.8804 7.26667 96.0538 10.7067 96.0538 15.08C96.0538 19.3733 94.8804 22.7733 92.5338 25.28C90.2138 27.76 86.5871 29 81.6538 29H73.0538ZM76.4138 26.2H81.5738C84.2938 26.2 86.4538 25.76 88.0538 24.88C89.6804 23.9733 90.8404 22.6933 91.5338 21.04C92.2271 19.36 92.5738 17.3733 92.5738 15.08C92.5738 12.7333 92.2271 10.72 91.5338 9.04C90.8404 7.36 89.6804 6.06667 88.0538 5.16C86.4538 4.25333 84.2938 3.8 81.5738 3.8H76.4138V26.2ZM100.905 29V0.999998H104.265V29H100.905ZM122.922 29.48C120.176 29.48 117.762 28.88 115.682 27.68C113.629 26.4533 112.016 24.7467 110.842 22.56C109.696 20.3733 109.122 17.8533 109.122 15C109.122 12.1467 109.696 9.64 110.842 7.48C112.016 5.29333 113.629 3.58667 115.682 2.36C117.762 1.13333 120.176 0.52 122.922 0.52C125.696 0.52 128.109 1.13333 130.162 2.36C132.242 3.58667 133.856 5.29333 135.002 7.48C136.149 9.64 136.722 12.1467 136.722 15C136.722 17.8533 136.149 20.3733 135.002 22.56C133.856 24.7467 132.242 26.4533 130.162 27.68C128.109 28.88 125.696 29.48 122.922 29.48ZM122.922 26.52C124.976 26.52 126.776 26.0667 128.322 25.16C129.896 24.2267 131.109 22.9067 131.962 21.2C132.842 19.4667 133.282 17.4 133.282 15C133.282 12.6 132.842 10.5467 131.962 8.84C131.109 7.13333 129.896 5.82667 128.322 4.92C126.776 3.98667 124.976 3.52 122.922 3.52C120.869 3.52 119.056 3.98667 117.482 4.92C115.936 5.82667 114.722 7.13333 113.842 8.84C112.989 10.5467 112.562 12.6 112.562 15C112.562 17.4 112.989 19.4667 113.842 21.2C114.722 22.9067 115.936 24.2267 117.482 25.16C119.056 26.0667 120.869 26.52 122.922 26.52ZM152.155 29V0.999998H161.355C163.542 0.999998 165.342 1.36 166.755 2.08C168.169 2.8 169.209 3.77333 169.875 5C170.569 6.22667 170.915 7.61333 170.915 9.16C170.915 10.68 170.582 12.0533 169.915 13.28C169.249 14.5067 168.209 15.4933 166.795 16.24C165.382 16.96 163.569 17.32 161.355 17.32H155.515V29H152.155ZM155.515 14.48H161.275C163.515 14.48 165.102 14.0133 166.035 13.08C166.995 12.12 167.475 10.8133 167.475 9.16C167.475 7.48 166.995 6.17333 166.035 5.24C165.102 4.28 163.515 3.8 161.275 3.8H155.515V14.48ZM188.039 29.48C185.293 29.48 182.879 28.88 180.799 27.68C178.746 26.4533 177.133 24.7467 175.959 22.56C174.813 20.3733 174.239 17.8533 174.239 15C174.239 12.1467 174.813 9.64 175.959 7.48C177.133 5.29333 178.746 3.58667 180.799 2.36C182.879 1.13333 185.293 0.52 188.039 0.52C190.813 0.52 193.226 1.13333 195.279 2.36C197.359 3.58667 198.973 5.29333 200.119 7.48C201.266 9.64 201.839 12.1467 201.839 15C201.839 17.8533 201.266 20.3733 200.119 22.56C198.973 24.7467 197.359 26.4533 195.279 27.68C193.226 28.88 190.813 29.48 188.039 29.48ZM188.039 26.52C190.093 26.52 191.893 26.0667 193.439 25.16C195.013 24.2267 196.226 22.9067 197.079 21.2C197.959 19.4667 198.399 17.4 198.399 15C198.399 12.6 197.959 10.5467 197.079 8.84C196.226 7.13333 195.013 5.82667 193.439 4.92C191.893 3.98667 190.093 3.52 188.039 3.52C185.986 3.52 184.173 3.98667 182.599 4.92C181.053 5.82667 179.839 7.13333 178.959 8.84C178.106 10.5467 177.679 12.6 177.679 15C177.679 17.4 178.106 19.4667 178.959 21.2C179.839 22.9067 181.053 24.2267 182.599 25.16C184.173 26.0667 185.986 26.52 188.039 26.52ZM206.687 29V0.999998H210.047V26.32H223.087V29H206.687ZM227.702 29V0.999998H231.062V26.32H244.102V29H227.702ZM251.693 29V18.36L242.573 0.999998H246.373L253.373 15.16L260.373 0.999998H264.133L255.053 18.36V29H251.693Z" fill="#111010"/>
</svg>
