<svg width="437" height="352" viewBox="0 0 437 352" fill="none" xmlns="http://www.w3.org/2000/svg">
<g clip-path="url(#clip0_102_314)">
<path d="M20 0.5H417C427.77 0.5 436.5 9.23045 436.5 20V332C436.5 342.77 427.77 351.5 417 351.5H20C9.23045 351.5 0.5 342.77 0.5 332V20C0.5 9.23045 9.23045 0.5 20 0.5Z" stroke="#111010"/>
<rect x="1" y="295.281" width="435.328" height="1" fill="#111010"/>
<path d="M1 296H436V331C436 342.046 427.046 351 416 351H21C9.9543 351 1 342.046 1 331V296Z" fill="#CAB5EB"/>
<path d="M112.171 329V316.88L109.911 317.38V316.22L112.731 315H113.871V329H112.171ZM122.286 329.24C121.046 329.24 119.972 328.94 119.066 328.34C118.172 327.727 117.486 326.88 117.006 325.8C116.526 324.707 116.286 323.44 116.286 322C116.286 320.56 116.526 319.3 117.006 318.22C117.486 317.127 118.172 316.28 119.066 315.68C119.972 315.067 121.046 314.76 122.286 314.76C123.526 314.76 124.592 315.067 125.486 315.68C126.379 316.28 127.066 317.127 127.546 318.22C128.026 319.3 128.266 320.56 128.266 322C128.266 323.44 128.026 324.707 127.546 325.8C127.066 326.88 126.379 327.727 125.486 328.34C124.592 328.94 123.526 329.24 122.286 329.24ZM122.286 327.76C123.099 327.76 123.826 327.533 124.466 327.08C125.119 326.613 125.626 325.953 125.986 325.1C126.359 324.233 126.546 323.2 126.546 322C126.546 320.8 126.359 319.773 125.986 318.92C125.626 318.067 125.119 317.413 124.466 316.96C123.826 316.493 123.099 316.26 122.286 316.26C121.459 316.26 120.726 316.493 120.086 316.96C119.446 317.413 118.939 318.067 118.566 318.92C118.192 319.773 118.006 320.8 118.006 322C118.006 323.2 118.192 324.233 118.566 325.1C118.939 325.953 119.446 326.613 120.086 327.08C120.726 327.533 121.459 327.76 122.286 327.76ZM139.266 329V316.38H135.086V315H145.126V316.38H140.946V329H139.266ZM147.177 329V315H148.857V329H147.177ZM151.826 329V315H156.426C157.519 315 158.419 315.18 159.126 315.54C159.832 315.9 160.352 316.387 160.686 317C161.032 317.613 161.206 318.307 161.206 319.08C161.206 319.84 161.039 320.527 160.706 321.14C160.372 321.753 159.852 322.247 159.146 322.62C158.439 322.98 157.532 323.16 156.426 323.16H153.506V329H151.826ZM153.506 321.74H156.386C157.506 321.74 158.299 321.507 158.766 321.04C159.246 320.56 159.486 319.907 159.486 319.08C159.486 318.24 159.246 317.587 158.766 317.12C158.299 316.64 157.506 316.4 156.386 316.4H153.506V321.74ZM167.868 329.24C166.841 329.24 165.948 329.053 165.188 328.68C164.428 328.307 163.841 327.787 163.428 327.12C163.014 326.453 162.808 325.68 162.808 324.8H164.568C164.568 325.347 164.694 325.853 164.948 326.32C165.201 326.773 165.568 327.14 166.048 327.42C166.541 327.687 167.148 327.82 167.868 327.82C168.814 327.82 169.548 327.593 170.068 327.14C170.588 326.687 170.848 326.12 170.848 325.44C170.848 324.88 170.728 324.433 170.488 324.1C170.248 323.753 169.921 323.473 169.508 323.26C169.108 323.047 168.641 322.86 168.108 322.7C167.588 322.54 167.041 322.36 166.468 322.16C165.388 321.787 164.588 321.327 164.068 320.78C163.548 320.22 163.288 319.493 163.288 318.6C163.274 317.853 163.448 317.193 163.808 316.62C164.168 316.033 164.674 315.58 165.328 315.26C165.994 314.927 166.781 314.76 167.688 314.76C168.581 314.76 169.354 314.927 170.008 315.26C170.674 315.593 171.188 316.053 171.548 316.64C171.921 317.227 172.114 317.893 172.128 318.64H170.368C170.368 318.253 170.268 317.873 170.068 317.5C169.868 317.113 169.561 316.8 169.148 316.56C168.748 316.32 168.241 316.2 167.628 316.2C166.868 316.187 166.241 316.38 165.748 316.78C165.268 317.18 165.028 317.733 165.028 318.44C165.028 319.04 165.194 319.5 165.528 319.82C165.874 320.14 166.354 320.407 166.968 320.62C167.581 320.82 168.288 321.053 169.088 321.32C169.754 321.56 170.354 321.84 170.888 322.16C171.421 322.48 171.834 322.893 172.128 323.4C172.434 323.907 172.588 324.553 172.588 325.34C172.588 326.007 172.414 326.64 172.068 327.24C171.721 327.827 171.194 328.307 170.488 328.68C169.794 329.053 168.921 329.24 167.868 329.24ZM180.263 329V315H188.783V316.38H181.943V321.3H187.763V322.66H181.943V329H180.263ZM197.307 329.24C195.933 329.24 194.727 328.94 193.687 328.34C192.66 327.727 191.853 326.873 191.267 325.78C190.693 324.687 190.407 323.427 190.407 322C190.407 320.573 190.693 319.32 191.267 318.24C191.853 317.147 192.66 316.293 193.687 315.68C194.727 315.067 195.933 314.76 197.307 314.76C198.693 314.76 199.9 315.067 200.927 315.68C201.967 316.293 202.773 317.147 203.347 318.24C203.92 319.32 204.207 320.573 204.207 322C204.207 323.427 203.92 324.687 203.347 325.78C202.773 326.873 201.967 327.727 200.927 328.34C199.9 328.94 198.693 329.24 197.307 329.24ZM197.307 327.76C198.333 327.76 199.233 327.533 200.007 327.08C200.793 326.613 201.4 325.953 201.827 325.1C202.267 324.233 202.487 323.2 202.487 322C202.487 320.8 202.267 319.773 201.827 318.92C201.4 318.067 200.793 317.413 200.007 316.96C199.233 316.493 198.333 316.26 197.307 316.26C196.28 316.26 195.373 316.493 194.587 316.96C193.813 317.413 193.207 318.067 192.767 318.92C192.34 319.773 192.127 320.8 192.127 322C192.127 323.2 192.34 324.233 192.767 325.1C193.207 325.953 193.813 326.613 194.587 327.08C195.373 327.533 196.28 327.76 197.307 327.76ZM206.63 329V315H211.15C212.244 315 213.137 315.18 213.83 315.54C214.524 315.9 215.037 316.393 215.37 317.02C215.704 317.647 215.87 318.34 215.87 319.1C215.87 319.98 215.63 320.773 215.15 321.48C214.684 322.187 213.95 322.687 212.95 322.98L216.01 329H214.03L211.19 323.22H211.07H208.31V329H206.63ZM208.31 321.9H211.03C212.11 321.9 212.897 321.64 213.39 321.12C213.884 320.6 214.13 319.933 214.13 319.12C214.13 318.293 213.884 317.64 213.39 317.16C212.91 316.667 212.117 316.42 211.01 316.42H208.31V321.9ZM223.779 329V315H228.699C229.685 315 230.499 315.16 231.139 315.48C231.792 315.787 232.279 316.213 232.599 316.76C232.919 317.293 233.079 317.893 233.079 318.56C233.079 319.467 232.832 320.18 232.339 320.7C231.859 321.22 231.279 321.58 230.599 321.78C231.119 321.873 231.592 322.08 232.019 322.4C232.445 322.72 232.779 323.12 233.019 323.6C233.272 324.08 233.399 324.607 233.399 325.18C233.399 325.887 233.225 326.533 232.879 327.12C232.532 327.693 232.019 328.153 231.339 328.5C230.659 328.833 229.832 329 228.859 329H223.779ZM225.459 321.12H228.579C229.472 321.12 230.159 320.913 230.639 320.5C231.119 320.073 231.359 319.487 231.359 318.74C231.359 318.033 231.119 317.467 230.639 317.04C230.172 316.613 229.465 316.4 228.519 316.4H225.459V321.12ZM225.459 327.6H228.679C229.639 327.6 230.379 327.38 230.899 326.94C231.419 326.487 231.679 325.86 231.679 325.06C231.679 324.273 231.405 323.647 230.859 323.18C230.312 322.7 229.572 322.46 228.639 322.46H225.459V327.6ZM235.81 329V315H244.47V316.38H237.49V321.26H243.87V322.62H237.49V327.62H244.47V329H235.81ZM253.119 329.24C251.812 329.24 250.666 328.94 249.679 328.34C248.692 327.727 247.926 326.88 247.379 325.8C246.832 324.707 246.559 323.447 246.559 322.02C246.559 320.593 246.832 319.333 247.379 318.24C247.939 317.147 248.726 316.293 249.739 315.68C250.766 315.067 251.972 314.76 253.359 314.76C254.932 314.76 256.239 315.14 257.279 315.9C258.332 316.66 259.012 317.707 259.319 319.04H257.379C257.192 318.2 256.746 317.533 256.039 317.04C255.346 316.547 254.452 316.3 253.359 316.3C252.332 316.3 251.439 316.533 250.679 317C249.919 317.453 249.326 318.107 248.899 318.96C248.486 319.813 248.279 320.833 248.279 322.02C248.279 323.207 248.486 324.227 248.899 325.08C249.312 325.933 249.886 326.593 250.619 327.06C251.352 327.513 252.206 327.74 253.179 327.74C254.672 327.74 255.799 327.307 256.559 326.44C257.319 325.56 257.752 324.36 257.859 322.84H253.819V321.52H259.579V329H258.039L257.899 326.7C257.392 327.513 256.772 328.14 256.039 328.58C255.306 329.02 254.332 329.24 253.119 329.24ZM262.236 329V315H263.916V329H262.236ZM266.884 329V315H268.564L276.024 326.22V315H277.704V329H276.024L268.564 317.78V329H266.884ZM280.673 329V315H282.353L289.813 326.22V315H291.493V329H289.813L282.353 317.78V329H280.673ZM294.462 329V315H303.122V316.38H296.142V321.26H302.522V322.62H296.142V327.62H303.122V329H294.462ZM305.751 329V315H310.271C311.365 315 312.258 315.18 312.951 315.54C313.645 315.9 314.158 316.393 314.491 317.02C314.825 317.647 314.991 318.34 314.991 319.1C314.991 319.98 314.751 320.773 314.271 321.48C313.805 322.187 313.071 322.687 312.071 322.98L315.131 329H313.151L310.311 323.22H310.191H307.431V329H305.751ZM307.431 321.9H310.151C311.231 321.9 312.018 321.64 312.511 321.12C313.005 320.6 313.251 319.933 313.251 319.12C313.251 318.293 313.005 317.64 312.511 317.16C312.031 316.667 311.238 316.42 310.131 316.42H307.431V321.9ZM322.067 329.24C321.04 329.24 320.147 329.053 319.387 328.68C318.627 328.307 318.04 327.787 317.627 327.12C317.214 326.453 317.007 325.68 317.007 324.8H318.767C318.767 325.347 318.894 325.853 319.147 326.32C319.4 326.773 319.767 327.14 320.247 327.42C320.74 327.687 321.347 327.82 322.067 327.82C323.014 327.82 323.747 327.593 324.267 327.14C324.787 326.687 325.047 326.12 325.047 325.44C325.047 324.88 324.927 324.433 324.687 324.1C324.447 323.753 324.12 323.473 323.707 323.26C323.307 323.047 322.84 322.86 322.307 322.7C321.787 322.54 321.24 322.36 320.667 322.16C319.587 321.787 318.787 321.327 318.267 320.78C317.747 320.22 317.487 319.493 317.487 318.6C317.474 317.853 317.647 317.193 318.007 316.62C318.367 316.033 318.874 315.58 319.527 315.26C320.194 314.927 320.98 314.76 321.887 314.76C322.78 314.76 323.554 314.927 324.207 315.26C324.874 315.593 325.387 316.053 325.747 316.64C326.12 317.227 326.314 317.893 326.327 318.64H324.567C324.567 318.253 324.467 317.873 324.267 317.5C324.067 317.113 323.76 316.8 323.347 316.56C322.947 316.32 322.44 316.2 321.827 316.2C321.067 316.187 320.44 316.38 319.947 316.78C319.467 317.18 319.227 317.733 319.227 318.44C319.227 319.04 319.394 319.5 319.727 319.82C320.074 320.14 320.554 320.407 321.167 320.62C321.78 320.82 322.487 321.053 323.287 321.32C323.954 321.56 324.554 321.84 325.087 322.16C325.62 322.48 326.034 322.893 326.327 323.4C326.634 323.907 326.787 324.553 326.787 325.34C326.787 326.007 326.614 326.64 326.267 327.24C325.92 327.827 325.394 328.307 324.687 328.68C323.994 329.053 323.12 329.24 322.067 329.24Z" fill="#111010"/>
</g>
<defs>
<clipPath id="clip0_102_314">
<rect width="437" height="352" fill="white"/>
</clipPath>
</defs>
</svg>
